<svg width="644" height="543" viewBox="0 0 644 543" fill="none" xmlns="http://www.w3.org/2000/svg">
<g clip-path="url(#clip0)">
<path d="M567 542.339C605.66 542.339 637 539.949 637 537C637 534.051 605.66 531.661 567 531.661C528.34 531.661 497 534.051 497 537C497 539.949 528.34 542.339 567 542.339Z" fill="#4CAF50" fill-opacity="0.3"/>
<path d="M226 542.339C264.66 542.339 296 539.949 296 537C296 534.051 264.66 531.661 226 531.661C187.34 531.661 156 534.051 156 537C156 539.949 187.34 542.339 226 542.339Z" fill="#4CAF50" fill-opacity="0.3"/>
<path d="M536.5 472H60.5C58.5115 471.998 56.6051 471.207 55.1991 469.801C53.793 468.395 53.0022 466.488 53 464.5V7.5C53.0022 5.51154 53.793 3.60515 55.1991 2.1991C56.6051 0.793044 58.5115 0.00217049 60.5 0H536.5C538.488 0.00217049 540.395 0.793044 541.801 2.1991C543.207 3.60515 543.998 5.51154 544 7.5V464.5C543.998 466.488 543.207 468.395 541.801 469.801C540.395 471.207 538.488 471.998 536.5 472ZM60.5 3C59.3069 3.0013 58.1631 3.47583 57.3195 4.31946C56.4758 5.16309 56.0013 6.30693 56 7.5V464.5C56.0013 465.693 56.4758 466.837 57.3195 467.681C58.1631 468.524 59.3069 468.999 60.5 469H536.5C537.693 468.999 538.837 468.524 539.681 467.681C540.524 466.837 540.999 465.693 541 464.5V7.5C540.999 6.30692 540.524 5.16309 539.681 4.31946C538.837 3.47583 537.693 3.0013 536.5 3H60.5Z" fill="#4CAF50" fill-opacity="0.3"/>
<path d="M88 40C87.2046 40.0009 86.4421 40.3172 85.8796 40.8796C85.3172 41.4421 85.0009 42.2046 85 43V167C85.0009 167.795 85.3172 168.558 85.8796 169.12C86.4421 169.683 87.2046 169.999 88 170H212C212.795 169.999 213.558 169.683 214.12 169.12C214.683 168.558 214.999 167.795 215 167V43C214.999 42.2046 214.683 41.4421 214.12 40.8796C213.558 40.3172 212.795 40.0009 212 40H88Z" fill="#4CAF50" fill-opacity="0.3"/>
<path d="M283.04 129.75C282.089 129.766 281.182 130.155 280.516 130.833C279.849 131.511 279.475 132.424 279.475 133.375C279.475 134.326 279.849 135.239 280.516 135.917C281.182 136.595 282.089 136.984 283.04 136.999H453.918C454.395 137.009 454.868 136.923 455.312 136.749C455.756 136.575 456.161 136.314 456.504 135.983C456.847 135.652 457.122 135.257 457.311 134.819C457.501 134.382 457.603 133.911 457.611 133.435C457.619 132.958 457.533 132.484 457.357 132.041C457.182 131.598 456.92 131.193 456.588 130.851C456.256 130.509 455.86 130.235 455.422 130.047C454.984 129.858 454.514 129.757 454.037 129.75C453.997 129.75 453.958 129.75 453.918 129.75H283.04Z" fill="#4CAF50" fill-opacity="0.3"/>
<path d="M283.04 96.7505C282.089 96.7663 281.182 97.1551 280.516 97.8331C279.849 98.5111 279.475 99.424 279.475 100.375C279.475 101.326 279.849 102.239 280.516 102.917C281.182 103.595 282.089 103.984 283.04 103.999H331.918C332.395 104.009 332.868 103.923 333.312 103.749C333.756 103.575 334.161 103.314 334.504 102.983C334.847 102.652 335.122 102.257 335.311 101.819C335.501 101.382 335.603 100.911 335.611 100.435C335.619 99.9579 335.533 99.4843 335.357 99.0409C335.182 98.5976 334.92 98.1933 334.588 97.851C334.256 97.5088 333.86 97.2354 333.422 97.0466C332.984 96.8577 332.514 96.7571 332.037 96.7505C331.997 96.7498 331.958 96.7498 331.918 96.7505H283.04Z" fill="#4CAF50" fill-opacity="0.3"/>
<path d="M283.04 163.75C282.089 163.766 281.182 164.155 280.516 164.833C279.849 165.511 279.475 166.424 279.475 167.375C279.475 168.326 279.849 169.239 280.516 169.917C281.182 170.595 282.089 170.984 283.04 170.999H453.918C454.878 171.013 455.803 170.645 456.492 169.977C457.181 169.308 457.577 168.394 457.593 167.434C457.608 166.475 457.243 165.548 456.576 164.857C455.91 164.167 454.997 163.769 454.037 163.75C453.997 163.75 453.958 163.75 453.918 163.75H283.04Z" fill="#4CAF50" fill-opacity="0.3"/>
<path d="M486.309 294.712H251.471C246.893 294.712 243.183 292.069 243.178 288.812V237.77C243.183 234.513 246.893 231.87 251.471 231.87H486.309C490.887 231.87 494.597 234.513 494.602 237.77V288.811C494.598 292.068 490.887 294.708 486.309 294.712Z" fill="#4CAF50" fill-opacity="0.3"/>
<path d="M327.309 418.712H92.4707C87.8927 418.712 84.1827 416.069 84.1777 412.812V361.77C84.1827 358.513 87.8927 355.87 92.4707 355.87H327.309C331.887 355.87 335.597 358.513 335.602 361.77V412.811C335.598 416.068 331.887 418.708 327.309 418.712Z" fill="#4CAF50" fill-opacity="0.3"/>
<path d="M256.466 446.831H21.6282C17.0502 446.831 13.3402 444.188 13.3352 440.931V389.889C13.3402 386.632 17.0502 383.989 21.6282 383.989H256.466C261.044 383.989 264.754 386.632 264.759 389.889V440.93C264.755 444.187 261.044 446.827 256.466 446.831ZM21.6282 386.347C18.8812 386.347 16.6552 387.933 16.6522 389.887V440.928C16.6522 442.882 18.8812 444.466 21.6282 444.468H256.466C259.213 444.468 261.439 442.882 261.442 440.928V389.889C261.442 387.935 259.213 386.351 256.466 386.349L21.6282 386.347Z" fill="#1C3D37"/>
<path d="M341 307C351.493 307 360 298.493 360 288C360 277.507 351.493 269 341 269C330.507 269 322 277.507 322 288C322 298.493 330.507 307 341 307Z" fill="#4CAF50"/>
<path d="M56 434C66.4934 434 75 425.493 75 415C75 404.507 66.4934 396 56 396C45.5066 396 37 404.507 37 415C37 425.493 45.5066 434 56 434Z" fill="#4CAF50"/>
<path d="M382.04 274.375C381.089 274.391 380.182 274.78 379.516 275.458C378.849 276.136 378.475 277.049 378.475 278C378.475 278.951 378.849 279.864 379.516 280.542C380.182 281.22 381.089 281.609 382.04 281.624H517.918C518.878 281.638 519.803 281.27 520.492 280.602C521.181 279.933 521.577 279.019 521.593 278.059C521.608 277.1 521.243 276.173 520.576 275.482C519.91 274.792 518.997 274.394 518.037 274.375C517.997 274.375 517.958 274.375 517.918 274.375H382.04Z" fill="#1C3D37"/>
<path d="M382.04 294.375C381.089 294.391 380.182 294.78 379.516 295.458C378.849 296.136 378.475 297.049 378.475 298C378.475 298.951 378.849 299.864 379.516 300.542C380.182 301.22 381.089 301.609 382.04 301.624H517.918C518.878 301.638 519.803 301.27 520.492 300.602C521.181 299.933 521.577 299.019 521.593 298.059C521.608 297.1 521.243 296.173 520.576 295.482C519.91 294.792 518.997 294.394 518.037 294.375C517.997 294.375 517.958 294.375 517.918 294.375H382.04Z" fill="#1C3D37"/>
<path d="M97.0399 401.375C96.0891 401.391 95.1825 401.78 94.5157 402.458C93.8488 403.136 93.4751 404.049 93.4751 405C93.4751 405.951 93.8488 406.864 94.5157 407.542C95.1825 408.22 96.0891 408.609 97.0399 408.625H232.918C233.878 408.638 234.803 408.27 235.492 407.602C236.181 406.933 236.577 406.019 236.593 405.059C236.608 404.1 236.243 403.173 235.576 402.482C234.91 401.792 233.997 401.394 233.037 401.375C232.997 401.375 232.958 401.375 232.918 401.375H97.0399Z" fill="#1C3D37"/>
<path d="M97.0399 421.375C96.0891 421.391 95.1825 421.78 94.5157 422.458C93.8488 423.136 93.4751 424.049 93.4751 425C93.4751 425.951 93.8488 426.864 94.5157 427.542C95.1825 428.22 96.0891 428.609 97.0399 428.625H232.918C233.878 428.638 234.803 428.27 235.492 427.602C236.181 426.933 236.577 426.019 236.593 425.059C236.608 424.1 236.243 423.173 235.576 422.482C234.91 421.792 233.997 421.394 233.037 421.375C232.997 421.375 232.958 421.375 232.918 421.375H97.0399Z" fill="#1C3D37"/>
<path d="M568.973 518.998C592.758 518.998 612.04 499.716 612.04 475.931C612.04 452.145 592.758 432.863 568.973 432.863C545.188 432.863 525.906 452.145 525.906 475.931C525.906 499.716 545.188 518.998 568.973 518.998Z" fill="#223333"/>
<path d="M588.599 509.73H575.515V533.172H588.599V509.73Z" fill="#223333"/>
<path d="M562.431 509.73H549.347V533.172H562.431V509.73Z" fill="#223333"/>
<path d="M577.695 537.533C583.717 537.533 588.599 535.703 588.599 533.445C588.599 531.187 583.717 529.356 577.695 529.356C571.674 529.356 566.792 531.187 566.792 533.445C566.792 535.703 571.674 537.533 577.695 537.533Z" fill="#223333"/>
<path d="M551.528 536.988C557.55 536.988 562.431 535.158 562.431 532.899C562.431 530.641 557.55 528.811 551.528 528.811C545.506 528.811 540.625 530.641 540.625 532.899C540.625 535.158 545.506 536.988 551.528 536.988Z" fill="#223333"/>
<path d="M567.883 479.747C576.012 479.747 582.602 473.157 582.602 465.027C582.602 456.898 576.012 450.308 567.883 450.308C559.753 450.308 553.163 456.898 553.163 465.027C553.163 473.157 559.753 479.747 567.883 479.747Z" fill="white"/>
<path d="M567.883 469.934C570.592 469.934 572.789 467.737 572.789 465.028C572.789 462.318 570.592 460.121 567.883 460.121C565.173 460.121 562.976 462.318 562.976 465.028C562.976 467.737 565.173 469.934 567.883 469.934Z" fill="#1C3D37"/>
<path d="M610.75 435.879C614.227 420.305 603.111 404.569 585.921 400.73C568.731 396.892 551.977 406.405 548.499 421.979C545.022 437.553 556.414 443.297 573.604 447.135C590.794 450.974 607.272 451.453 610.75 435.879Z" fill="#4CAF50"/>
<path d="M110.31 189.96C110.321 196.563 108.805 203.08 105.88 209C105.55 209.68 105.2 210.34 104.83 211H29.66C29.29 210.34 28.94 209.68 28.61 209C25.7402 203.181 24.222 196.789 24.1689 190.301C24.1158 183.813 25.5292 177.397 28.3035 171.532C31.0778 165.667 35.1412 160.504 40.1905 156.43C45.2397 152.355 51.1442 149.474 57.4631 148.001C63.7819 146.529 70.3518 146.503 76.6821 147.925C83.0124 149.348 88.9395 152.182 94.0208 156.216C99.1021 160.251 103.206 165.381 106.027 171.224C108.848 177.067 110.312 183.472 110.31 189.96Z" fill="#223333"/>
<path d="M68.3363 193.772C76.4655 193.772 83.0555 187.181 83.0555 179.052C83.0555 170.923 76.4655 164.333 68.3363 164.333C60.2071 164.333 53.6171 170.923 53.6171 179.052C53.6171 187.181 60.2071 193.772 68.3363 193.772Z" fill="white"/>
<path d="M68.3362 183.959C71.046 183.959 73.2426 181.762 73.2426 179.052C73.2426 176.343 71.046 174.146 68.3362 174.146C65.6265 174.146 63.4298 176.343 63.4298 179.052C63.4298 181.762 65.6265 183.959 68.3362 183.959Z" fill="#1C3D37"/>
<path d="M25.4691 149.904C21.9916 134.33 33.1078 118.594 50.2977 114.755C67.4876 110.917 84.2419 120.43 87.7194 136.004C91.1968 151.578 79.8045 157.322 62.6145 161.16C45.4246 164.998 28.9466 165.478 25.4691 149.904Z" fill="#4CAF50"/>
<path d="M129 77H5C3.67406 77.0005 2.40257 77.5274 1.465 78.465C0.527418 79.4026 0.000479728 80.6741 0 82V206C0.000479728 207.326 0.527418 208.597 1.465 209.535C2.40257 210.473 3.67406 211 5 211H129C130.326 211 131.597 210.473 132.535 209.535C133.473 208.597 134 207.326 134 206V82C134 80.6741 133.473 79.4026 132.535 78.465C131.597 77.5274 130.326 77.0005 129 77ZM132 206C131.998 206.795 131.681 207.557 131.119 208.119C130.557 208.681 129.795 208.998 129 209H5C4.20507 208.998 3.44336 208.681 2.88126 208.119C2.31915 207.557 2.00233 206.795 2 206V82C2.00232 81.2051 2.31915 80.4434 2.88126 79.8813C3.44336 79.3191 4.20506 79.0023 5 79H129C129.795 79.0023 130.557 79.3191 131.119 79.8813C131.681 80.4434 131.998 81.2051 132 82V206Z" fill="#1C3D37"/>
<path d="M265.105 445.822C269.351 434.713 269.966 424.627 266.479 423.294C262.992 421.961 256.722 429.886 252.476 440.995C248.23 452.104 247.615 462.19 251.103 463.523C254.59 464.856 260.859 456.931 265.105 445.822Z" fill="#223333"/>
<path d="M261.495 482.829C265.305 459.351 249.361 437.229 225.882 433.419C202.404 429.609 180.282 445.554 176.472 469.032C172.662 492.51 188.607 514.632 212.085 518.442C235.563 522.252 257.685 506.308 261.495 482.829Z" fill="#223333"/>
<path d="M212.442 509.73H199.358V533.172H212.442V509.73Z" fill="#223333"/>
<path d="M238.609 509.73H225.526V533.172H238.609V509.73Z" fill="#223333"/>
<path d="M210.261 537.533C216.283 537.533 221.164 535.703 221.164 533.445C221.164 531.187 216.283 529.356 210.261 529.356C204.24 529.356 199.358 531.187 199.358 533.445C199.358 535.703 204.24 537.533 210.261 537.533Z" fill="#223333"/>
<path d="M236.429 536.988C242.45 536.988 247.332 535.158 247.332 532.899C247.332 530.641 242.45 528.811 236.429 528.811C230.407 528.811 225.526 530.641 225.526 532.899C225.526 535.158 230.407 536.988 236.429 536.988Z" fill="#223333"/>
<path d="M177.207 435.879C173.73 420.305 184.846 404.569 202.036 400.73C219.226 396.892 235.98 406.405 239.457 421.979C242.935 437.553 231.542 443.297 214.352 447.135C197.163 450.973 180.685 451.453 177.207 435.879Z" fill="#4CAF50"/>
<path d="M189.932 465.175C191.532 461.802 184.118 454.936 173.373 449.839C162.627 444.743 152.619 443.346 151.019 446.719C149.419 450.093 156.833 456.959 167.579 462.055C178.324 467.151 188.332 468.548 189.932 465.175Z" fill="#223333"/>
<path d="M581.968 386.655C605.171 386.655 623.98 367.845 623.98 344.643C623.98 321.44 605.171 302.63 581.968 302.63C558.765 302.63 539.956 321.44 539.956 344.643C539.956 367.845 558.765 386.655 581.968 386.655Z" fill="#223333"/>
<path d="M601.266 377.525L588.503 377.584L588.609 400.451L601.372 400.392L601.266 377.525Z" fill="#223333"/>
<path d="M575.74 377.643L562.977 377.703L563.083 400.57L575.846 400.511L575.74 377.643Z" fill="#223333"/>
<path d="M568.827 406.391C573.9 403.43 577.113 399.488 576.003 397.585C574.893 395.683 569.88 396.54 564.806 399.501C559.733 402.462 556.52 406.404 557.63 408.307C558.741 410.209 563.754 409.351 568.827 406.391Z" fill="#223333"/>
<path d="M593.821 406.275C598.895 403.314 602.108 399.371 600.997 397.469C599.887 395.566 594.874 396.424 589.801 399.385C584.727 402.346 581.515 406.288 582.625 408.19C583.735 410.093 588.748 409.235 593.821 406.275Z" fill="#223333"/>
<path d="M580.855 348.37C588.785 348.37 595.214 341.942 595.214 334.012C595.214 326.082 588.785 319.653 580.855 319.653C572.925 319.653 566.496 326.082 566.496 334.012C566.496 341.942 572.925 348.37 580.855 348.37Z" fill="white"/>
<path d="M575.937 332.705C578.58 332.705 580.723 330.562 580.723 327.919C580.723 325.275 578.58 323.132 575.937 323.132C573.293 323.132 571.15 325.275 571.15 327.919C571.15 330.562 573.293 332.705 575.937 332.705Z" fill="#1C3D37"/>
<path d="M622.539 305.383C625.861 290.175 614.946 274.875 598.16 271.209C581.374 267.542 565.073 276.898 561.752 292.106C558.43 307.314 569.569 312.866 586.355 316.532C603.141 320.198 619.218 320.591 622.539 305.383Z" fill="#4CAF50"/>
<path d="M557.443 331.548C558.86 328.193 551.346 321.813 540.659 317.298C529.973 312.782 520.16 311.842 518.743 315.196C517.325 318.551 524.84 324.931 535.526 329.447C546.213 333.962 556.025 334.903 557.443 331.548Z" fill="#223333"/>
<path d="M643.279 366.367C644.697 363.012 637.183 356.632 626.496 352.117C615.809 347.602 605.997 346.661 604.58 350.016C603.162 353.371 610.676 359.751 621.363 364.266C632.049 368.781 641.862 369.722 643.279 366.367Z" fill="#223333"/>
<path d="M590.458 362.95C590.466 364.208 590.227 365.455 589.752 366.62C589.278 367.785 588.579 368.845 587.695 369.74C586.812 370.635 585.76 371.346 584.601 371.835C583.442 372.323 582.198 372.577 580.94 372.585C579.682 372.592 578.435 372.351 577.271 371.876C576.106 371.401 575.047 370.701 574.153 369.816C573.259 368.932 572.548 367.879 572.061 366.72C571.574 365.56 571.32 364.316 571.314 363.058L571.314 363.039C571.289 357.753 575.57 356.638 580.856 356.613C586.143 356.589 590.434 357.664 590.458 362.95Z" fill="white"/>
<path d="M547.403 319.665H312.565C307.987 319.665 304.277 317.022 304.272 313.765V262.723C304.277 259.466 307.987 256.823 312.565 256.823H547.403C551.981 256.823 555.691 259.466 555.696 262.723V313.764C555.692 317.021 551.981 319.661 547.403 319.665ZM312.565 259.181C309.818 259.181 307.592 260.767 307.589 262.721V313.762C307.589 315.716 309.818 317.3 312.565 317.302H547.403C550.15 317.302 552.376 315.716 552.379 313.762V262.723C552.379 260.769 550.15 259.185 547.403 259.183L312.565 259.181Z" fill="#1C3D37"/>
</g>
<defs>
<clipPath id="clip0">
<rect width="643.451" height="542.339" fill="white"/>
</clipPath>
</defs>
</svg>
