<svg width="510" height="662" viewBox="0 0 510 662" fill="none" xmlns="http://www.w3.org/2000/svg">
<g clip-path="url(#clip0)">
<path d="M360.687 182.782C360.687 186.555 360.565 190.297 360.32 194.007C358.948 215.403 353.539 236.347 344.378 255.735C344.307 255.9 344.224 256.054 344.154 256.208C343.727 257.107 343.289 258.006 342.839 258.893C340.115 264.376 337.092 269.706 333.786 274.86C318.68 298.518 297.976 318.093 273.503 331.857C249.03 345.62 221.541 353.147 193.466 353.773L195.159 451.043L217.232 439.428L221.173 446.915L195.325 460.517L198.485 641.171L198.52 643.584L181.453 645.015L181.489 644.956L186.862 353.785C164.264 353.461 141.956 348.654 121.232 339.643C100.509 330.632 81.7828 317.597 66.1418 301.294C65.0651 300.183 63.9995 299.035 62.9581 297.9C62.9108 297.853 62.8755 297.805 62.8397 297.77C49.8079 283.568 39.2685 267.269 31.6657 249.561C31.8315 249.75 32.0089 249.927 32.1748 250.117C14.992 209.962 13.8266 164.76 28.9174 123.775C44.0082 82.789 74.2125 49.1227 113.341 29.6744C113.933 29.3787 114.536 29.0949 115.128 28.7992C153.833 10.1682 198.13 6.74967 239.239 19.2212C280.347 31.6927 315.267 59.1438 337.075 96.1335C338.117 97.8841 339.124 99.67 340.094 101.468C353.641 126.43 360.721 154.385 360.687 182.782Z" fill="#4CAF50" fill-opacity="0.3"/>
<path d="M284.591 643.782C287.263 643.782 289.43 638.008 289.43 630.886C289.43 623.764 287.263 617.99 284.591 617.99C281.918 617.99 279.751 623.764 279.751 630.886C279.751 638.008 281.918 643.782 284.591 643.782Z" fill="#223333"/>
<path d="M458.893 645.872H7.9682C7.65431 645.872 7.35325 645.748 7.1313 645.526C6.90934 645.304 6.78467 645.003 6.78467 644.689C6.78467 644.376 6.90934 644.075 7.1313 643.853C7.35325 643.631 7.65431 643.507 7.9682 643.507H458.893C459.207 643.507 459.508 643.631 459.73 643.853C459.952 644.075 460.077 644.376 460.077 644.689C460.077 645.003 459.952 645.304 459.73 645.526C459.508 645.748 459.207 645.872 458.893 645.872Z" fill="#223333"/>
<path d="M234.676 645.413C262.827 645.413 285.648 622.607 285.648 594.475C285.648 566.343 262.827 543.537 234.676 543.537C206.525 543.537 183.705 566.343 183.705 594.475C183.705 622.607 206.525 645.413 234.676 645.413Z" fill="#223333"/>
<path d="M294.92 629.49H249.255V644.965H294.92V629.49Z" fill="#223333"/>
<path d="M295.242 644.965C297.915 644.965 300.081 639.191 300.081 632.069C300.081 624.947 297.915 619.173 295.242 619.173C292.57 619.173 290.403 624.947 290.403 632.069C290.403 639.191 292.57 644.965 295.242 644.965Z" fill="#223333"/>
<path d="M284.268 628.307H238.603V643.782H284.268V628.307Z" fill="#223333"/>
<path d="M185.232 547.104C181.116 528.684 194.273 510.071 214.617 505.532C234.962 500.992 254.792 512.244 258.907 530.664C263.023 549.084 249.54 555.877 229.195 560.417C208.85 564.957 189.348 565.524 185.232 547.104Z" fill="#4CAF50"/>
<path d="M254.267 591.574C251.601 591.629 248.985 590.844 246.79 589.333C244.594 587.821 242.929 585.658 242.029 583.15C241.98 583.002 241.96 582.847 241.971 582.692C241.981 582.537 242.022 582.386 242.092 582.246C242.161 582.107 242.257 581.983 242.374 581.881C242.491 581.779 242.627 581.701 242.775 581.652C242.922 581.602 243.078 581.582 243.233 581.593C243.388 581.604 243.539 581.645 243.678 581.714C243.817 581.783 243.942 581.879 244.044 581.996C244.146 582.113 244.224 582.249 244.273 582.396C246.065 587.728 252.201 590.516 257.949 588.61C260.802 587.681 263.173 585.663 264.544 582.995C265.132 581.846 265.486 580.591 265.584 579.304C265.683 578.017 265.525 576.724 265.118 575.499C265.069 575.351 265.049 575.196 265.06 575.041C265.07 574.886 265.111 574.735 265.181 574.596C265.25 574.456 265.346 574.332 265.463 574.23C265.58 574.128 265.716 574.05 265.864 574.001C266.011 573.951 266.167 573.931 266.322 573.942C266.477 573.953 266.628 573.994 266.767 574.063C266.906 574.132 267.031 574.228 267.133 574.345C267.235 574.462 267.313 574.598 267.362 574.746C267.869 576.266 268.067 577.871 267.947 579.469C267.827 581.067 267.39 582.624 266.661 584.052C265.008 587.281 262.144 589.727 258.694 590.855C257.266 591.33 255.771 591.573 254.267 591.574Z" fill="white"/>
<path d="M276.971 598.498C278.34 601.171 278.589 604.278 277.665 607.135C276.741 609.992 274.719 612.366 272.043 613.733C269.368 615.1 266.259 615.35 263.4 614.426C260.541 613.502 258.166 611.482 256.798 608.808L256.788 608.788C253.944 603.219 257.874 599.761 263.447 596.92C269.021 594.078 274.128 592.928 276.971 598.498Z" fill="white"/>
<path d="M223.273 661.909C228.02 660.685 228.707 647.442 224.807 632.33C220.907 617.217 213.897 605.958 209.15 607.182C204.402 608.405 203.715 621.648 207.615 636.761C211.515 651.873 218.525 663.133 223.273 661.909Z" fill="#223333"/>
<path d="M308.861 533.752H289.468C289.284 533.752 289.103 533.696 288.951 533.592C288.799 533.487 288.681 533.339 288.615 533.167C288.549 532.995 288.536 532.806 288.578 532.627C288.621 532.447 288.717 532.285 288.854 532.161L306.489 516.2H290.196C289.953 516.2 289.72 516.104 289.549 515.932C289.377 515.761 289.281 515.528 289.281 515.286C289.281 515.044 289.377 514.811 289.549 514.64C289.72 514.468 289.953 514.372 290.196 514.372H308.861C309.046 514.372 309.226 514.428 309.379 514.532C309.531 514.637 309.648 514.785 309.715 514.957C309.781 515.129 309.794 515.318 309.751 515.497C309.708 515.677 309.612 515.839 309.475 515.963L291.841 531.924H308.861C309.104 531.924 309.336 532.021 309.508 532.192C309.68 532.363 309.776 532.596 309.776 532.838C309.776 533.081 309.68 533.313 309.508 533.485C309.336 533.656 309.104 533.752 308.861 533.752Z" fill="#4CAF50"/>
<path d="M333.554 505.419H314.161C313.977 505.419 313.796 505.363 313.644 505.259C313.491 505.154 313.374 505.006 313.308 504.834C313.241 504.662 313.229 504.474 313.271 504.294C313.314 504.114 313.41 503.952 313.547 503.828L331.182 487.867H314.888C314.646 487.867 314.413 487.771 314.242 487.599C314.07 487.428 313.974 487.195 313.974 486.953C313.974 486.711 314.07 486.478 314.242 486.307C314.413 486.135 314.646 486.039 314.888 486.039H333.554C333.739 486.039 333.919 486.095 334.072 486.199C334.224 486.304 334.341 486.452 334.408 486.624C334.474 486.796 334.487 486.985 334.444 487.164C334.401 487.344 334.305 487.507 334.168 487.63L316.533 503.591H333.554C333.797 503.591 334.029 503.688 334.201 503.859C334.372 504.03 334.469 504.263 334.469 504.505C334.469 504.748 334.372 504.98 334.201 505.152C334.029 505.323 333.797 505.419 333.554 505.419Z" fill="#4CAF50"/>
<path d="M322.58 474.345H303.187C303.002 474.345 302.822 474.289 302.669 474.184C302.517 474.08 302.4 473.932 302.333 473.759C302.267 473.587 302.254 473.399 302.297 473.219C302.34 473.04 302.436 472.877 302.573 472.753L320.207 456.792H303.914C303.671 456.792 303.439 456.696 303.267 456.525C303.096 456.353 302.999 456.121 302.999 455.878C302.999 455.636 303.096 455.403 303.267 455.232C303.439 455.061 303.671 454.964 303.914 454.964H322.58C322.764 454.964 322.945 455.02 323.097 455.125C323.249 455.229 323.367 455.377 323.433 455.55C323.5 455.722 323.512 455.91 323.469 456.09C323.427 456.269 323.331 456.432 323.194 456.556L305.559 472.517H322.58C322.822 472.517 323.055 472.613 323.226 472.784C323.398 472.956 323.494 473.188 323.494 473.431C323.494 473.673 323.398 473.905 323.226 474.077C323.055 474.248 322.822 474.345 322.58 474.345Z" fill="#4CAF50"/>
<path d="M456.984 209.794L472.127 197.69C460.363 196.393 455.53 202.804 453.551 207.879C444.361 204.066 434.356 209.064 434.356 209.064L464.654 220.056C463.126 215.976 460.465 212.416 456.984 209.794Z" fill="#223333"/>
<path d="M22.6282 12.2732L37.7713 0.169506C26.0073 -1.12753 21.1737 5.28408 19.1955 10.3589C10.005 6.54519 0 11.5433 0 11.5433L30.2985 22.5356C28.77 18.4556 26.1092 14.8957 22.6282 12.2732Z" fill="#223333"/>
<path d="M494.857 53.6697L510 41.566C498.236 40.269 493.402 46.6806 491.424 51.7554C482.233 47.9417 472.229 52.9398 472.229 52.9398L502.527 63.932C500.999 59.8521 498.338 56.2922 494.857 53.6697Z" fill="#223333"/>
</g>
<defs>
<clipPath id="clip0">
<rect width="510" height="662" fill="white"/>
</clipPath>
</defs>
</svg>
