<svg width="535" height="403" viewBox="0 0 535 403" fill="none" xmlns="http://www.w3.org/2000/svg">
<path opacity="0.1" d="M267.5 366C415.236 366 535 356.598 535 345C535 333.402 415.236 324 267.5 324C119.764 324 0 333.402 0 345C0 356.598 119.764 366 267.5 366Z" fill="#4CAF50"/>
<path d="M322 346L210 344.558L210.327 341.669L215.745 294H314.099L321.34 341.669L321.893 345.279L322 346Z" fill="#D0D2D5"/>
<path d="M481 9.42783C481.01 8.19731 480.778 6.97678 480.317 5.83628C479.856 4.69578 479.174 3.65777 478.311 2.78182C477.448 1.90586 476.42 1.2092 475.288 0.731821C474.155 0.254444 472.94 0.00574568 471.711 0H57.2889C56.0604 0.00657452 54.8452 0.25583 53.7131 0.733499C52.5809 1.21117 51.554 1.90786 50.6911 2.78365C49.8283 3.65944 49.1464 4.69713 48.6847 5.83726C48.2229 6.97738 47.9904 8.19754 48.0003 9.42783V261H481V9.42783Z" fill="#223333"/>
<path d="M48 259V288.644C48 291.125 48.9786 293.505 50.7206 295.26C52.4625 297.014 54.8251 298 57.2886 298H471.711C474.175 298 476.538 297.014 478.279 295.26C480.021 293.505 481 291.125 481 288.644V259H48Z" fill="#D0D2D5"/>
<path d="M465 16H66V243H465V16Z" fill="#264040"/>
<path opacity="0.1" d="M276 298L322 342L314.94 298H276Z" fill="black"/>
<path d="M265.505 206.009C303.339 206.009 334.009 175.339 334.009 137.505C334.009 99.6705 303.339 69 265.505 69C227.671 69 197 99.6705 197 137.505C197 175.339 227.671 206.009 265.505 206.009Z" fill="#4CAF50"/>
<path d="M250.706 118.693L246.693 122.706L280.303 156.316L284.316 152.303L250.706 118.693Z" fill="white"/>
<path d="M284.316 122.706L280.302 118.693L246.693 152.303L250.706 156.316L284.316 122.706Z" fill="white"/>
<path d="M379.189 307.409C381.134 302.757 370.697 293.963 355.877 287.767C341.057 281.571 327.467 280.32 325.522 284.972C323.577 289.625 334.014 298.419 348.834 304.615C363.654 310.81 377.244 312.062 379.189 307.409Z" fill="#223333"/>
<path d="M428.719 373.895C460.43 368.749 481.965 338.871 476.819 307.16C471.673 275.449 441.795 253.914 410.084 259.06C378.373 264.206 356.838 294.084 361.984 325.795C367.13 357.506 397.008 379.041 428.719 373.895Z" fill="#223333"/>
<path d="M446.161 362.187H428.296L431.791 400.129L446.193 396.256L446.161 362.187Z" fill="#223333"/>
<path d="M407.535 362.187H389.638L393.14 400.129L406.914 396.158L407.535 362.187Z" fill="#223333"/>
<path d="M392.667 401.926C400.779 401.333 407.174 398.386 406.952 395.345C406.729 392.303 399.973 390.318 391.862 390.911C383.75 391.504 377.355 394.45 377.577 397.492C377.8 400.534 384.556 402.519 392.667 401.926Z" fill="#223333"/>
<path d="M417.915 321.382C428.788 321.382 437.602 312.568 437.602 301.695C437.602 290.823 428.788 282.009 417.915 282.009C407.043 282.009 398.229 290.823 398.229 301.695C398.229 312.568 407.043 321.382 417.915 321.382Z" fill="white"/>
<path d="M417.915 308.496C421.671 308.496 424.716 305.451 424.716 301.695C424.716 297.939 421.671 294.894 417.915 294.894C414.159 294.894 411.115 297.939 411.115 301.695C411.115 305.451 414.159 308.496 417.915 308.496Z" fill="#223333"/>
<path d="M488.821 330.811C504.711 333.158 518.19 331.017 518.927 326.028C519.664 321.04 507.38 315.093 491.489 312.746C475.599 310.399 462.119 312.54 461.383 317.529C460.646 322.517 472.93 328.464 488.821 330.811Z" fill="#223333"/>
<path d="M391.07 346.478C391.07 341.892 403.17 332.836 416.597 332.836C430.024 332.836 442.613 345.748 442.613 350.334C442.613 354.92 430.024 349.444 416.597 349.444C403.17 349.444 391.07 351.065 391.07 346.478Z" fill="white"/>
<path d="M476.114 262.411C480.818 241.468 465.782 220.306 442.531 215.144C419.281 209.982 396.619 222.776 391.916 243.719C387.212 264.662 402.621 272.387 425.872 277.548C449.123 282.71 471.411 283.355 476.114 262.411Z" fill="#4CAF50"/>
<path d="M431.421 401.833C439.533 401.24 445.928 398.293 445.706 395.251C445.483 392.21 438.728 390.224 430.616 390.818C422.505 391.411 416.109 394.357 416.332 397.399C416.554 400.441 423.31 402.426 431.421 401.833Z" fill="#223333"/>
</svg>
