<svg width="682" height="426" viewBox="0 0 682 426" fill="none" xmlns="http://www.w3.org/2000/svg">
<path d="M178.24 259.622C249.898 259.622 307.987 201.504 307.987 129.811C307.987 58.1184 249.898 0 178.24 0C106.583 0 48.4932 58.1184 48.4932 129.811C48.4932 201.504 106.583 259.622 178.24 259.622Z" fill="#4CAF50" fill-opacity="0.3"/>
<path d="M0 31.1683C0 78.3988 29.6153 116.617 66.2141 116.617L0 31.1683Z" fill="#223333"/>
<path d="M66.2144 116.617C66.2144 68.8559 99.2633 30.2082 140.105 30.2082L66.2144 116.617Z" fill="#4CAF50"/>
<path d="M23.9907 35.4498C23.9907 80.3138 42.8758 116.617 66.2142 116.617L23.9907 35.4498Z" fill="#4CAF50"/>
<path d="M66.2144 116.617C66.2144 55.5889 104.414 6.20575 151.621 6.20575L66.2144 116.617Z" fill="#223333"/>
<path d="M52.2842 117.22C52.2842 117.22 61.6744 116.93 64.5044 114.914C67.3344 112.898 78.949 110.49 79.651 113.724C80.3531 116.957 93.7628 129.806 83.1613 129.892C72.5597 129.977 58.528 128.239 55.7035 126.518C52.8789 124.797 52.2842 117.22 52.2842 117.22Z" fill="#A8A8A8"/>
<path opacity="0.2" d="M83.3505 128.766C72.7489 128.851 58.7172 127.114 55.8927 125.392C53.7416 124.081 52.8845 119.377 52.5977 117.207C52.399 117.216 52.2842 117.219 52.2842 117.219C52.2842 117.219 52.8789 124.797 55.7035 126.518C58.528 128.239 72.5597 129.977 83.1613 129.891C86.2215 129.867 87.2786 128.777 87.2205 127.164C86.7954 128.139 85.6282 128.748 83.3505 128.766Z" fill="black"/>
<path d="M120.981 274.212C183.892 274.212 234.891 267.271 234.891 258.708C234.891 250.145 183.892 243.204 120.981 243.204C58.0708 243.204 7.07178 250.145 7.07178 258.708C7.07178 267.271 58.0708 274.212 120.981 274.212Z" fill="#264040"/>
<path opacity="0.1" d="M120.981 271.725C173.799 271.725 216.616 265.897 216.616 258.708C216.616 251.519 173.799 245.691 120.981 245.691C68.163 245.691 25.3457 251.519 25.3457 258.708C25.3457 265.897 68.163 271.725 120.981 271.725Z" fill="black"/>
<path d="M509.613 426C604.82 426 682 415.495 682 402.536C682 389.578 604.82 379.073 509.613 379.073C414.406 379.073 337.226 389.578 337.226 402.536C337.226 415.495 414.406 426 509.613 426Z" fill="#264040"/>
<path d="M189.205 407.49C246.396 407.49 292.759 401.179 292.759 393.395C292.759 385.611 246.396 379.3 189.205 379.3C132.014 379.3 85.6509 385.611 85.6509 393.395C85.6509 401.179 132.014 407.49 189.205 407.49Z" fill="#264040"/>
<path d="M281.794 381.511C336.617 395.528 441.999 363.227 453.572 326.661" stroke="#223333" stroke-width="2" stroke-miterlimit="10"/>
<path d="M188.596 157.845C188.596 157.845 267.784 135.906 272.657 206.601C277.53 277.296 207.479 297.408 262.302 311.425" stroke="#223333" stroke-width="2" stroke-miterlimit="10"/>
<path d="M112.089 327.443C112.089 327.443 135.889 320.849 137.354 342.097C138.819 363.345 117.764 369.389 134.242 373.602" stroke="#223333" stroke-width="2" stroke-miterlimit="10"/>
<path d="M474.341 343.262L469.543 373.914C469.543 373.914 445.919 386.47 462.529 386.84C479.14 387.209 557.393 386.84 557.393 386.84C557.393 386.84 572.527 386.84 548.534 373.545L543.735 341.416L474.341 343.262Z" fill="#223333"/>
<path opacity="0.1" d="M459.188 386.507C462.96 383.149 469.542 379.65 469.542 379.65L474.341 348.998L543.735 349.063L548.534 379.28C554.129 382.381 557.595 384.757 559.622 386.58C562.704 385.877 566.071 383.263 548.534 373.545L543.735 341.416L474.341 343.262L469.542 373.914C469.542 373.914 449.692 384.466 459.188 386.507Z" fill="black"/>
<path d="M653.998 129.621H363.34C357.269 129.621 352.347 134.545 352.347 140.619V336.511C352.347 342.585 357.269 347.509 363.34 347.509H653.998C660.069 347.509 664.991 342.585 664.991 336.511V140.619C664.991 134.545 660.069 129.621 653.998 129.621Z" fill="#223333"/>
<path d="M654.471 141.254H362.867V304.485H654.471V141.254Z" fill="#264040"/>
<path d="M508.669 137.931C509.688 137.931 510.514 137.104 510.514 136.084C510.514 135.064 509.688 134.238 508.669 134.238C507.65 134.238 506.823 135.064 506.823 136.084C506.823 137.104 507.65 137.931 508.669 137.931Z" fill="#F2F2F2"/>
<path d="M664.991 317.411V336.511C664.991 337.956 664.707 339.386 664.154 340.72C663.602 342.055 662.792 343.267 661.772 344.288C660.751 345.31 659.539 346.12 658.205 346.672C656.872 347.225 655.442 347.509 653.998 347.509H363.34C361.896 347.509 360.466 347.225 359.133 346.672C357.799 346.12 356.587 345.31 355.566 344.288C354.546 343.267 353.736 342.055 353.184 340.72C352.631 339.386 352.347 337.956 352.347 336.511V317.411H664.991Z" fill="#223333"/>
<path d="M590.244 406.782V410.475H391.658V407.52L391.932 406.782L396.826 393.487H586.184L590.244 406.782Z" fill="#223333"/>
<path d="M666.667 403.166C666.305 404.714 664.939 406.346 661.853 407.89C650.78 413.429 628.264 406.413 628.264 406.413C628.264 406.413 610.915 403.458 610.915 395.703C611.402 395.369 611.91 395.067 612.436 394.798C617.091 392.334 632.528 386.253 659.899 395.056C661.915 395.689 663.716 396.87 665.101 398.467C666.211 399.766 667.08 401.413 666.667 403.166Z" fill="#223333"/>
<path opacity="0.1" d="M666.666 403.166C653.112 408.362 641.031 408.75 628.632 400.134C622.38 395.791 616.699 394.717 612.436 394.798C617.091 392.334 632.528 386.253 659.898 395.056C661.915 395.689 663.716 396.87 665.101 398.467C666.21 399.766 667.08 401.413 666.666 403.166Z" fill="black"/>
<path d="M649.673 400.134C652.323 400.134 654.471 399.473 654.471 398.657C654.471 397.841 652.323 397.18 649.673 397.18C647.022 397.18 644.874 397.841 644.874 398.657C644.874 399.473 647.022 400.134 649.673 400.134Z" fill="#F2F2F2"/>
<path d="M508.67 339.569C512.543 339.569 515.683 336.428 515.683 332.552C515.683 328.677 512.543 325.536 508.67 325.536C504.796 325.536 501.656 328.677 501.656 332.552C501.656 336.428 504.796 339.569 508.67 339.569Z" fill="#F2F2F2"/>
<path opacity="0.1" d="M590.244 406.782V410.475H391.658V407.52L391.932 406.782H590.244Z" fill="black"/>
<path d="M192.86 96.9013H66.1582V244.386H192.86V96.9013Z" fill="#223333"/>
<path d="M205.652 82.2747H53.3667V134.687H205.652V82.2747Z" fill="#264040"/>
<path d="M205.652 144.438H53.3667V196.85H205.652V144.438Z" fill="#264040"/>
<path d="M205.652 206.601H53.3667V259.013H205.652V206.601Z" fill="#264040"/>
<path opacity="0.4" d="M175.195 91.4163H165.448V101.167H175.195V91.4163Z" fill="#4CAF50"/>
<path opacity="0.8" d="M189.205 91.4163H179.458V101.167H189.205V91.4163Z" fill="#4CAF50"/>
<path d="M203.215 91.4163H193.469V101.167H203.215V91.4163Z" fill="#4CAF50"/>
<path opacity="0.4" d="M175.195 152.97H165.448V162.721H175.195V152.97Z" fill="#4CAF50"/>
<path opacity="0.8" d="M189.205 152.97H179.458V162.721H189.205V152.97Z" fill="#4CAF50"/>
<path d="M203.215 152.97H193.469V162.721H203.215V152.97Z" fill="#4CAF50"/>
<path opacity="0.4" d="M175.195 214.524H165.448V224.275H175.195V214.524Z" fill="#4CAF50"/>
<path opacity="0.8" d="M189.205 214.524H179.458V224.275H189.205V214.524Z" fill="#4CAF50"/>
<path d="M203.215 214.524H193.469V224.275H203.215V214.524Z" fill="#4CAF50"/>
<path d="M192.86 376.026C219.437 376.026 240.982 354.47 240.982 327.88C240.982 301.29 219.437 279.734 192.86 279.734C166.283 279.734 144.738 301.29 144.738 327.88C144.738 354.47 166.283 376.026 192.86 376.026Z" fill="#223333"/>
<path d="M185.55 365.665H170.931V391.871H185.55V365.665Z" fill="#223333"/>
<path d="M214.789 365.665H200.169V391.871H214.789V365.665Z" fill="#223333"/>
<path d="M183.113 396.747C189.842 396.747 195.296 394.7 195.296 392.176C195.296 389.652 189.842 387.605 183.113 387.605C176.385 387.605 170.931 389.652 170.931 392.176C170.931 394.7 176.385 396.747 183.113 396.747Z" fill="#223333"/>
<path d="M212.352 396.137C219.081 396.137 224.535 394.091 224.535 391.567C224.535 389.042 219.081 386.996 212.352 386.996C205.624 386.996 200.169 389.042 200.169 391.567C200.169 394.091 205.624 396.137 212.352 396.137Z" fill="#223333"/>
<path d="M194.078 332.146C203.161 332.146 210.525 324.779 210.525 315.691C210.525 306.603 203.161 299.236 194.078 299.236C184.995 299.236 177.631 306.603 177.631 315.691C177.631 324.779 184.995 332.146 194.078 332.146Z" fill="white"/>
<path d="M194.078 321.176C197.106 321.176 199.56 318.72 199.56 315.691C199.56 312.662 197.106 310.206 194.078 310.206C191.05 310.206 188.596 312.662 188.596 315.691C188.596 318.72 191.05 321.176 194.078 321.176Z" fill="#264040"/>
<path d="M146.18 283.106C142.294 265.695 154.715 248.103 173.922 243.812C193.13 239.521 211.851 250.156 215.736 267.566C219.622 284.977 206.892 291.398 187.685 295.689C168.477 299.98 150.065 300.516 146.18 283.106Z" fill="#4CAF50"/>
<path d="M237.994 318.277C250.21 313.046 258.783 305.694 257.142 301.857C255.5 298.02 244.266 299.151 232.049 304.382C219.833 309.613 211.26 316.965 212.901 320.802C214.543 324.639 225.777 323.509 237.994 318.277Z" fill="#223333"/>
<path d="M147.84 350.578C160.057 345.346 168.63 337.995 166.988 334.158C165.347 330.321 154.113 331.451 141.896 336.682C129.679 341.914 121.107 349.265 122.748 353.102C124.39 356.939 135.624 355.809 147.84 350.578Z" fill="#223333"/>
<path d="M220.88 352.582C220.88 347.869 208.753 338.564 195.297 338.564C181.84 338.564 169.104 347.26 169.104 351.972C169.104 356.684 181.84 355.629 195.297 355.629C208.753 355.629 220.88 357.294 220.88 352.582Z" fill="white"/>
</svg>
