<svg width="673" height="739" viewBox="0 0 673 739" fill="none" xmlns="http://www.w3.org/2000/svg">
<g clip-path="url(#clip0)">
<g opacity="0.1">
<path opacity="0.1" d="M337.55 1.3413C316.857 -1.45376 295.808 0.130395 275.766 5.99109C255.724 11.8518 237.138 21.8582 221.211 35.3619C205.284 48.8656 192.372 65.5652 183.312 84.3783C174.252 103.191 169.246 123.698 168.619 144.57C168.589 145.24 168.579 145.91 168.569 146.58C181.531 144.72 194.954 143.126 208.734 141.796C210.42 107.025 224.225 73.9407 247.755 48.2849C271.285 22.6291 303.054 6.02061 337.55 1.3413Z" fill="white"/>
</g>
<path d="M467 149.804C420.38 142.364 367.29 138.394 312 138.394C261.4 138.394 212.65 141.714 169.02 147.974C169.03 147.304 169.04 146.634 169.07 145.964C170.226 107.074 186.549 70.1783 214.55 43.1639C242.55 16.1495 280.007 1.1592 318.914 1.39689C357.821 1.63458 395.091 17.0814 422.759 44.4359C450.428 71.7904 466.299 108.882 466.98 147.784C466.99 148.464 467 149.134 467 149.804Z" fill="#4CAF50"/>
<path d="M532.18 161.624C510.72 155.806 488.953 151.186 466.98 147.784C430.966 142.203 394.658 138.714 358.24 137.334C343.07 136.714 327.62 136.394 312 136.394C299.62 136.394 287.34 136.594 275.23 136.994C239.706 138.044 204.266 141.038 169.07 145.964C143.016 149.552 117.214 154.782 91.8198 161.624C32.6098 177.994 0 199.934 0 223.394C0 246.854 32.6099 268.794 91.8198 285.164C133.46 296.684 184.8 304.534 240.74 308.134C263.83 309.634 287.7 310.394 312 310.394C336.38 310.394 360.33 309.624 383.49 308.124C434.4 304.834 481.5 298.024 520.92 288.124C521.13 288.064 521.33 288.014 521.54 287.964C524.2 287.304 526.82 286.614 529.41 285.924C530.34 285.664 531.26 285.414 532.18 285.164C532.232 285.143 532.285 285.126 532.34 285.114C533.22 284.874 534.09 284.624 534.96 284.384C536.7 283.884 538.42 283.394 540.11 282.884C540.19 282.864 540.26 282.844 540.33 282.824C541.8 282.384 543.24 281.944 544.67 281.504C545.84 281.134 547 280.774 548.15 280.404C548.99 280.134 549.82 279.864 550.64 279.594C551.24 279.394 551.83 279.204 552.41 279.004C553.2 278.744 553.99 278.474 554.77 278.204C555.1 278.094 555.43 277.984 555.75 277.864C556.5 277.614 557.23 277.354 557.96 277.094C558.75 276.814 559.54 276.524 560.32 276.244C560.97 276.014 561.62 275.774 562.26 275.534C562.8 275.324 563.33 275.124 563.87 274.924C565.34 274.374 566.78 273.804 568.2 273.244C568.91 272.954 569.62 272.674 570.32 272.384C571.01 272.104 571.71 271.814 572.39 271.524C573.51 271.054 574.61 270.584 575.69 270.114C576.21 269.874 576.74 269.644 577.25 269.424C577.64 269.244 578.02 269.074 578.41 268.894C578.69 268.774 578.97 268.644 579.24 268.514C580.25 268.054 581.25 267.584 582.23 267.114C585.99 265.314 589.5 263.474 592.76 261.594C613.21 249.884 624 236.894 624 223.394C624 199.934 591.39 177.994 532.18 161.624ZM531.64 283.244C489.95 294.774 438.47 302.624 382.38 306.194C359.57 307.644 335.99 308.394 312 308.394C288.09 308.394 264.59 307.654 241.85 306.204C185.67 302.644 134.11 294.794 92.3599 283.244C34.0899 267.124 2 245.874 2 223.394C2.00326 221.408 2.25188 219.429 2.74023 217.504C7.83984 197.224 39.21 178.244 92.3599 163.544C117.562 156.755 143.166 151.555 169.02 147.974C204.428 143.02 240.082 140.016 275.82 138.974C287.74 138.584 299.8 138.391 312 138.394C327.41 138.394 342.65 138.704 357.63 139.304C394.26 140.672 430.779 144.178 467 149.804C488.783 153.191 510.363 157.778 531.64 163.544C584.78 178.244 616.14 197.214 621.25 217.484C621.746 219.415 621.998 221.4 622 223.394C622 245.874 589.91 267.124 531.64 283.244Z" fill="#223333"/>
<path d="M623.43 224.304C623.43 237.664 612.42 250.304 592.76 261.594C589.49 263.474 585.97 265.314 582.23 267.114C581.25 267.584 580.25 268.054 579.24 268.514C578.97 268.644 578.69 268.774 578.41 268.894C578.02 269.074 577.64 269.244 577.25 269.424C576.74 269.644 576.21 269.874 575.69 270.114C574.61 270.584 573.51 271.054 572.39 271.524C571.71 271.814 571.01 272.104 570.32 272.384C569.62 272.674 568.91 272.954 568.2 273.244C566.78 273.804 565.34 274.374 563.87 274.924C563.33 275.124 562.8 275.324 562.26 275.534C561.62 275.774 560.97 276.014 560.32 276.244C559.54 276.524 558.75 276.814 557.96 277.094C557.23 277.354 556.5 277.614 555.75 277.864C555.43 277.984 555.1 278.094 554.77 278.204C553.99 278.474 553.2 278.744 552.41 279.004C551.83 279.204 551.24 279.394 550.64 279.594C549.82 279.864 548.99 280.134 548.15 280.404C547 280.774 545.84 281.134 544.67 281.504C543.24 281.944 541.8 282.384 540.33 282.824C540.26 282.844 540.19 282.864 540.11 282.884C538.42 283.394 536.7 283.884 534.96 284.384C534.09 284.624 533.22 284.874 532.34 285.114C532.285 285.126 532.232 285.143 532.18 285.164C531.26 285.414 530.34 285.664 529.41 285.924C526.83 286.604 524.2 287.294 521.54 287.964C521.33 288.014 521.13 288.064 520.92 288.124C482.57 297.704 435.52 304.684 383.45 308.054C360.64 309.524 336.86 310.304 312.43 310.304C287.78 310.304 263.8 309.514 240.81 308.014C103.57 299.064 1.43018 264.984 1.43018 224.304C1.44098 221.829 1.81828 219.369 2.5498 217.004C2.60986 217.174 2.66991 217.334 2.74023 217.504C17.0098 254.984 118.28 285.274 249.68 292.664C269.81 293.804 290.66 294.394 312 294.394C333.43 294.394 354.36 293.794 374.57 292.654C505.86 285.234 607.03 254.934 621.25 217.484C621.49 216.884 621.7 216.284 621.88 215.684C622.894 218.445 623.418 221.362 623.43 224.304Z" fill="#223333"/>
<path d="M91.6693 213.54C75.0266 213.54 57.3386 209.959 57.3386 203.323C57.3386 196.687 75.0266 193.106 91.6693 193.106C108.312 193.106 126 196.687 126 203.323C126 209.959 108.312 213.54 91.6693 213.54ZM91.6693 195.106C72.6163 195.106 59.3386 199.437 59.3386 203.323C59.3386 207.209 72.6163 211.54 91.6693 211.54C110.722 211.54 124 207.209 124 203.323C124 199.437 110.722 195.106 91.6693 195.106Z" fill="#223333"/>
<path d="M162.669 260.54C146.027 260.54 128.339 256.959 128.339 250.323C128.339 243.687 146.027 240.106 162.669 240.106C179.312 240.106 197 243.687 197 250.323C197 256.959 179.312 260.54 162.669 260.54ZM162.669 242.106C143.616 242.106 130.339 246.437 130.339 250.323C130.339 254.209 143.616 258.54 162.669 258.54C181.722 258.54 195 254.209 195 250.323C195 246.437 181.722 242.106 162.669 242.106Z" fill="#223333"/>
<path d="M531.669 213.54C515.027 213.54 497.339 209.959 497.339 203.323C497.339 196.687 515.027 193.106 531.669 193.106C548.312 193.106 566 196.687 566 203.323C566 209.959 548.312 213.54 531.669 213.54ZM531.669 195.106C512.616 195.106 499.339 199.437 499.339 203.323C499.339 207.209 512.616 211.54 531.669 211.54C550.722 211.54 564 207.209 564 203.323C564 199.437 550.722 195.106 531.669 195.106Z" fill="#223333"/>
<path d="M460.669 260.54C444.027 260.54 426.339 256.959 426.339 250.323C426.339 243.687 444.027 240.106 460.669 240.106C477.312 240.106 495 243.687 495 250.323C495 256.959 477.312 260.54 460.669 260.54ZM460.669 242.106C441.616 242.106 428.339 246.437 428.339 250.323C428.339 254.209 441.616 258.54 460.669 258.54C479.722 258.54 493 254.209 493 250.323C493 246.437 479.722 242.106 460.669 242.106Z" fill="#223333"/>
<path d="M311.669 282.54C295.027 282.54 277.339 278.959 277.339 272.323C277.339 265.687 295.027 262.106 311.669 262.106C328.312 262.106 346 265.687 346 272.323C346 278.959 328.312 282.54 311.669 282.54ZM311.669 264.106C292.616 264.106 279.339 268.437 279.339 272.323C279.339 276.209 292.616 280.54 311.669 280.54C330.722 280.54 344 276.209 344 272.323C344 268.437 330.722 264.106 311.669 264.106Z" fill="#223333"/>
<path d="M312.245 492.717C335.448 492.717 354.257 473.907 354.257 450.704C354.257 427.501 335.448 408.692 312.245 408.692C289.042 408.692 270.233 427.501 270.233 450.704C270.233 473.907 289.042 492.717 312.245 492.717Z" fill="#223333"/>
<path d="M296.269 478.307L275.822 488.546L281.537 499.958L301.984 489.719L296.269 478.307Z" fill="#223333"/>
<path d="M284.233 498.8C285.445 496.961 282.453 492.849 277.549 489.616C272.645 486.382 267.686 485.252 266.474 487.091C265.261 488.93 268.254 493.042 273.158 496.275C278.062 499.509 283.02 500.639 284.233 498.8Z" fill="#223333"/>
<path d="M328.221 478.307L322.506 489.719L342.953 499.958L348.668 488.546L328.221 478.307Z" fill="#223333"/>
<path d="M351.332 496.275C356.236 493.042 359.229 488.93 358.016 487.091C356.804 485.252 351.845 486.382 346.941 489.616C342.037 492.849 339.044 496.961 340.257 498.8C341.47 500.639 346.428 499.509 351.332 496.275Z" fill="#223333"/>
<path d="M309.304 454.786C317.234 454.786 323.662 448.358 323.662 440.428C323.662 432.498 317.234 426.069 309.304 426.069C301.374 426.069 294.945 432.498 294.945 440.428C294.945 448.358 301.374 454.786 309.304 454.786Z" fill="white"/>
<path d="M312.796 437.675C314.658 435.814 314.647 432.785 312.773 430.911C310.898 429.036 307.87 429.026 306.008 430.887C304.147 432.748 304.158 435.777 306.032 437.651C307.907 439.526 310.935 439.536 312.796 437.675Z" fill="#223333"/>
<path d="M345.387 404.999C346.019 389.446 332.614 376.272 315.446 375.574C298.278 374.877 283.849 386.92 283.217 402.474C282.585 418.028 294.519 421.561 311.687 422.259C328.855 422.956 344.755 420.553 345.387 404.999Z" fill="#4CAF50"/>
<path d="M369.604 472.703C372.367 470.331 368.481 461.272 360.924 452.469C353.368 443.667 345.001 438.454 342.238 440.826C339.475 443.198 343.36 452.258 350.917 461.06C358.474 469.863 366.84 475.076 369.604 472.703Z" fill="#223333"/>
<path d="M273.69 461.06C281.247 452.258 285.133 443.198 282.369 440.826C279.606 438.454 271.24 443.667 263.683 452.469C256.126 461.272 252.24 470.331 255.004 472.703C257.767 475.076 266.133 469.863 273.69 461.06Z" fill="#223333"/>
<path d="M323.784 467.261C324.238 469.758 323.682 472.335 322.238 474.422C320.793 476.51 318.578 477.938 316.08 478.393C313.583 478.848 311.007 478.291 308.919 476.847C306.831 475.402 305.403 473.187 304.948 470.69L304.945 470.671C304.003 465.469 308.025 463.628 313.228 462.686C318.43 461.745 322.842 462.059 323.784 467.261Z" fill="white"/>
<path d="M266 499C265.47 499 264.961 498.789 264.586 498.414C264.211 498.039 264 497.53 264 497V379C264 378.47 264.211 377.961 264.586 377.586C264.961 377.211 265.47 377 266 377C266.53 377 267.039 377.211 267.414 377.586C267.789 377.961 268 378.47 268 379V497C268 497.53 267.789 498.039 267.414 498.414C267.039 498.789 266.53 499 266 499Z" fill="#4CAF50" fill-opacity="0.3"/>
<path d="M236 605C235.47 605 234.961 604.789 234.586 604.414C234.211 604.039 234 603.53 234 603V517C234 516.47 234.211 515.961 234.586 515.586C234.961 515.211 235.47 515 236 515C236.53 515 237.039 515.211 237.414 515.586C237.789 515.961 238 516.47 238 517V603C238 603.53 237.789 604.039 237.414 604.414C237.039 604.789 236.53 605 236 605Z" fill="#4CAF50" fill-opacity="0.3"/>
<path d="M313 534C312.47 534 311.961 533.789 311.586 533.414C311.211 533.039 311 532.53 311 532V414C311 413.47 311.211 412.961 311.586 412.586C311.961 412.211 312.47 412 313 412C313.53 412 314.039 412.211 314.414 412.586C314.789 412.961 315 413.47 315 414V532C315 532.53 314.789 533.039 314.414 533.414C314.039 533.789 313.53 534 313 534Z" fill="#4CAF50" fill-opacity="0.3"/>
<path d="M284 619C283.47 619 282.961 618.789 282.586 618.414C282.211 618.039 282 617.53 282 617V569C282 568.47 282.211 567.961 282.586 567.586C282.961 567.211 283.47 567 284 567C284.53 567 285.039 567.211 285.414 567.586C285.789 567.961 286 568.47 286 569V617C286 617.53 285.789 618.039 285.414 618.414C285.039 618.789 284.53 619 284 619Z" fill="#4CAF50" fill-opacity="0.3"/>
<path d="M325 373C324.47 373 323.961 372.789 323.586 372.414C323.211 372.039 323 371.53 323 371V323C323 322.47 323.211 321.961 323.586 321.586C323.961 321.211 324.47 321 325 321C325.53 321 326.039 321.211 326.414 321.586C326.789 321.961 327 322.47 327 323V371C327 371.53 326.789 372.039 326.414 372.414C326.039 372.789 325.53 373 325 373Z" fill="#4CAF50" fill-opacity="0.3"/>
<path d="M225 394C224.47 394 223.961 393.789 223.586 393.414C223.211 393.039 223 392.53 223 392V344C223 343.47 223.211 342.961 223.586 342.586C223.961 342.211 224.47 342 225 342C225.53 342 226.039 342.211 226.414 342.586C226.789 342.961 227 343.47 227 344V392C227 392.53 226.789 393.039 226.414 393.414C226.039 393.789 225.53 394 225 394Z" fill="#4CAF50" fill-opacity="0.3"/>
<path d="M399 399C398.47 399 397.961 398.789 397.586 398.414C397.211 398.039 397 397.53 397 397V349C397 348.47 397.211 347.961 397.586 347.586C397.961 347.211 398.47 347 399 347C399.53 347 400.039 347.211 400.414 347.586C400.789 347.961 401 348.47 401 349V397C401 397.53 400.789 398.039 400.414 398.414C400.039 398.789 399.53 399 399 399Z" fill="#4CAF50" fill-opacity="0.3"/>
<path d="M395 549C394.47 549 393.961 548.789 393.586 548.414C393.211 548.039 393 547.53 393 547V489C393 488.47 393.211 487.961 393.586 487.586C393.961 487.211 394.47 487 395 487C395.53 487 396.039 487.211 396.414 487.586C396.789 487.961 397 488.47 397 489V547C397 547.53 396.789 548.039 396.414 548.414C396.039 548.789 395.53 549 395 549Z" fill="#4CAF50" fill-opacity="0.3"/>
<path d="M355 600C354.47 600 353.961 599.789 353.586 599.414C353.211 599.039 353 598.53 353 598V512C353 511.47 353.211 510.961 353.586 510.586C353.961 510.211 354.47 510 355 510C355.53 510 356.039 510.211 356.414 510.586C356.789 510.961 357 511.47 357 512V598C357 598.53 356.789 599.039 356.414 599.414C356.039 599.789 355.53 600 355 600Z" fill="#4CAF50" fill-opacity="0.3"/>
<path d="M363 453C362.47 453 361.961 452.789 361.586 452.414C361.211 452.039 361 451.53 361 451V333C361 332.47 361.211 331.961 361.586 331.586C361.961 331.211 362.47 331 363 331C363.53 331 364.039 331.211 364.414 331.586C364.789 331.961 365 332.47 365 333V451C365 451.53 364.789 452.039 364.414 452.414C364.039 452.789 363.53 453 363 453Z" fill="#4CAF50" fill-opacity="0.3"/>
<path d="M589.42 689.154C596.941 666.589 584.746 642.199 562.181 634.677C539.617 627.156 515.227 639.351 507.705 661.915C500.183 684.48 512.378 708.87 534.943 716.392C557.508 723.913 581.898 711.718 589.42 689.154Z" fill="#223333"/>
<path d="M566.791 710.302H553.707V733.744H566.791V710.302Z" fill="#223333"/>
<path d="M540.624 710.302H527.54V733.744H540.624V710.302Z" fill="#223333"/>
<path d="M555.888 738.105C561.91 738.105 566.791 736.274 566.791 734.016C566.791 731.758 561.91 729.928 555.888 729.928C549.866 729.928 544.985 731.758 544.985 734.016C544.985 736.274 549.866 738.105 555.888 738.105Z" fill="#223333"/>
<path d="M529.721 737.56C535.742 737.56 540.624 735.729 540.624 733.471C540.624 731.213 535.742 729.382 529.721 729.382C523.699 729.382 518.817 731.213 518.817 733.471C518.817 735.729 523.699 737.56 529.721 737.56Z" fill="#223333"/>
<path d="M535.039 621.398C538.885 605.911 555.86 596.797 572.954 601.041C590.048 605.286 600.788 621.282 596.943 636.769C593.097 652.256 580.339 652.306 563.245 648.061C546.15 643.816 531.194 636.885 535.039 621.398Z" fill="#4CAF50"/>
<path d="M519.51 665.747C521.11 662.373 513.696 655.507 502.951 650.411C492.206 645.315 482.198 643.918 480.598 647.291C478.998 650.664 486.412 657.53 497.157 662.627C507.903 667.723 517.91 669.12 519.51 665.747Z" fill="#223333"/>
<path d="M542.124 681.773C550.054 681.773 556.482 675.345 556.482 667.415C556.482 659.485 550.054 653.056 542.124 653.056C534.194 653.056 527.765 659.485 527.765 667.415C527.765 675.345 534.194 681.773 542.124 681.773Z" fill="white"/>
<path d="M536.222 667.054C538.866 667.054 541.008 664.911 541.008 662.268C541.008 659.625 538.866 657.482 536.222 657.482C533.579 657.482 531.436 659.625 531.436 662.268C531.436 664.911 533.579 667.054 536.222 667.054Z" fill="#223333"/>
<path d="M542 703.394C545.314 703.394 548 700.708 548 697.394C548 694.08 545.314 691.394 542 691.394C538.686 691.394 536 694.08 536 697.394C536 700.708 538.686 703.394 542 703.394Z" fill="white"/>
<path d="M608.193 700.491C611.056 698.094 607.187 688.759 599.553 679.641C591.918 670.522 583.408 665.073 580.545 667.47C577.683 669.866 581.551 679.202 589.186 688.32C596.821 697.439 605.331 702.888 608.193 700.491Z" fill="#223333"/>
<path d="M671.531 738.394H435.531C435.266 738.394 435.012 738.289 434.824 738.101C434.637 737.914 434.531 737.659 434.531 737.394C434.531 737.129 434.637 736.874 434.824 736.687C435.012 736.499 435.266 736.394 435.531 736.394H671.531C671.797 736.394 672.051 736.499 672.239 736.687C672.426 736.874 672.531 737.129 672.531 737.394C672.531 737.659 672.426 737.914 672.239 738.101C672.051 738.289 671.797 738.394 671.531 738.394Z" fill="#223333"/>
</g>
<defs>
<clipPath id="clip0">
<rect width="672.531" height="738.394" fill="white"/>
</clipPath>
</defs>
</svg>
