<svg width="772" height="451" viewBox="0 0 772 451" fill="none" xmlns="http://www.w3.org/2000/svg">
<g clip-path="url(#clip0)">
<path d="M669.648 440.404H78.0027C72.7413 440.404 67.6954 438.312 63.975 434.587C60.2546 430.863 58.1646 425.812 58.1646 420.545C272.636 395.593 483.076 395.593 689.486 420.545C689.486 425.812 687.396 430.863 683.676 434.587C679.956 438.312 674.91 440.404 669.648 440.404Z" fill="#E5E5E5"/>
<path d="M689.486 421.713L58.1646 420.545L131.333 297.302L131.683 296.718V25.1042C131.682 21.8074 132.331 18.5428 133.591 15.4969C134.851 12.451 136.698 9.68344 139.027 7.35224C141.356 5.02105 144.121 3.17189 147.163 1.91039C150.206 0.648882 153.467 -0.000275399 156.76 8.76457e-08H587.39C590.683 -0.000275399 593.944 0.648882 596.987 1.91039C600.029 3.17189 602.794 5.02105 605.123 7.35224C607.452 9.68344 609.299 12.451 610.559 15.4969C611.819 18.5428 612.468 21.8074 612.467 25.1042V298.587L689.486 421.713Z" fill="#555151"/>
<path d="M156.189 17.5227C154.023 17.5251 151.947 18.3874 150.415 19.9204C148.884 21.4535 148.022 23.532 148.02 25.7V273.354C148.023 275.522 148.884 277.601 150.415 279.134C151.947 280.667 154.023 281.529 156.189 281.531H591.462C593.628 281.529 595.704 280.667 597.236 279.134C598.767 277.601 599.628 275.522 599.631 273.354V25.7C599.628 23.532 598.767 21.4535 597.236 19.9206C595.704 18.3876 593.628 17.5252 591.462 17.5227H156.189Z" fill="white"/>
<path d="M159.049 314.24C158.38 314.242 157.725 314.434 157.162 314.796C156.598 315.157 156.15 315.672 155.869 316.28L133.323 365.344C133.078 365.878 132.971 366.465 133.011 367.051C133.052 367.637 133.239 368.204 133.556 368.699C133.873 369.194 134.308 369.601 134.824 369.883C135.339 370.165 135.916 370.313 136.503 370.313H610.62C611.217 370.313 611.803 370.16 612.325 369.869C612.846 369.579 613.284 369.159 613.598 368.651C613.911 368.143 614.09 367.563 614.117 366.966C614.143 366.369 614.017 365.775 613.75 365.241L589.244 316.178C588.955 315.594 588.509 315.104 587.955 314.761C587.402 314.419 586.764 314.239 586.114 314.241L159.049 314.24Z" fill="#E5E5E5"/>
<path d="M372.075 13.434C374.975 13.434 377.326 11.0805 377.326 8.17722C377.326 5.27396 374.975 2.92041 372.075 2.92041C369.175 2.92041 366.824 5.27396 366.824 8.17722C366.824 11.0805 369.175 13.434 372.075 13.434Z" fill="white"/>
<path d="M325.473 379.659C324.704 379.66 323.956 379.914 323.345 380.383C322.734 380.851 322.294 381.508 322.093 382.252L316.438 403.279C316.298 403.798 316.28 404.343 316.384 404.871C316.488 405.398 316.712 405.895 317.039 406.322C317.366 406.749 317.787 407.095 318.269 407.333C318.75 407.571 319.281 407.695 319.818 407.695H427.369C427.927 407.695 428.477 407.561 428.973 407.305C429.469 407.049 429.896 406.678 430.22 406.223C430.544 405.768 430.754 405.242 430.833 404.689C430.913 404.136 430.859 403.572 430.676 403.044L423.405 382.017C423.167 381.328 422.72 380.731 422.127 380.309C421.534 379.886 420.825 379.659 420.097 379.659H325.473Z" fill="#E5E5E5"/>
<path d="M612.468 292.629V297.302H131.333L131.694 296.718V292.629H612.468Z" fill="#F4F7F4"/>
<path d="M553.081 303.333C552.893 303.333 552.711 303.395 552.562 303.509C552.414 303.623 552.307 303.783 552.258 303.964L550.88 309.085C550.846 309.211 550.842 309.344 550.867 309.473C550.893 309.601 550.947 309.722 551.027 309.826C551.106 309.93 551.209 310.014 551.326 310.072C551.444 310.13 551.573 310.16 551.704 310.16H577.894C578.03 310.16 578.164 310.128 578.284 310.065C578.405 310.003 578.509 309.913 578.588 309.802C578.667 309.691 578.718 309.563 578.737 309.428C578.757 309.294 578.744 309.156 578.699 309.028L576.929 303.907C576.87 303.74 576.762 303.594 576.617 303.491C576.473 303.388 576.3 303.333 576.123 303.333H553.081Z" fill="#E5E5E5"/>
<path d="M514.84 303.333C514.652 303.333 514.47 303.395 514.322 303.509C514.173 303.623 514.066 303.783 514.017 303.964L512.64 309.085C512.606 309.211 512.601 309.344 512.626 309.473C512.652 309.601 512.706 309.722 512.786 309.826C512.866 309.93 512.968 310.014 513.085 310.072C513.203 310.13 513.332 310.16 513.463 310.16H539.653C539.789 310.16 539.923 310.128 540.043 310.065C540.164 310.003 540.268 309.913 540.347 309.802C540.426 309.691 540.477 309.563 540.497 309.428C540.516 309.294 540.503 309.156 540.458 309.028L538.688 303.907C538.63 303.74 538.521 303.594 538.376 303.491C538.232 303.388 538.059 303.333 537.882 303.333H514.84Z" fill="#E5E5E5"/>
<path d="M404.048 335.869H406.1L401.995 61.2109H399.942L400.024 66.6904H354.018L354.1 61.2109H352.048L347.942 335.869H349.995L350.261 318.06H403.782L404.048 335.869ZM401.089 137.923H352.954L353.455 104.362H400.588L401.089 137.923ZM401.12 139.978L401.621 173.54H352.421L352.923 139.978H401.12ZM401.652 175.595L402.154 209.156H351.889L352.391 175.595H401.652ZM402.185 211.211L402.686 244.773H351.357L351.858 211.211H402.185ZM402.717 246.827L403.219 280.389H350.824L351.326 246.827H402.717ZM400.055 68.7452L400.557 102.307H353.486L353.988 68.7452H400.055ZM350.292 316.006L350.794 282.444H403.249L403.751 316.006H350.292Z" fill="#4CAF50"/>
<path d="M366.853 155.812C385.338 155.812 400.324 140.811 400.324 122.306C400.324 103.801 385.338 88.8004 366.853 88.8004C348.368 88.8004 333.382 103.801 333.382 122.306C333.382 140.811 348.368 155.812 366.853 155.812Z" fill="#223333"/>
<path d="M386.541 145.462L376.535 147.275L379.78 165.22L389.786 163.407L386.541 145.462Z" fill="#223333"/>
<path d="M366.529 149.088L356.524 150.901L359.769 168.847L369.775 167.034L366.529 149.088Z" fill="#223333"/>
<path d="M365.081 172.624C368.652 169.596 370.628 166.055 369.493 164.714C368.359 163.374 364.545 164.741 360.973 167.769C357.402 170.796 355.427 174.338 356.561 175.678C357.695 177.019 361.509 175.651 365.081 172.624Z" fill="#223333"/>
<path d="M384.675 169.073C388.246 166.045 390.222 162.504 389.088 161.163C387.954 159.823 384.139 161.19 380.568 164.218C376.997 167.245 375.021 170.787 376.155 172.127C377.289 173.468 381.104 172.1 384.675 169.073Z" fill="#223333"/>
<path d="M364.51 125.562C370.828 125.562 375.949 120.435 375.949 114.111C375.949 107.786 370.828 102.659 364.51 102.659C358.192 102.659 353.071 107.786 353.071 114.111C353.071 120.435 358.192 125.562 364.51 125.562Z" fill="white"/>
<path d="M359.808 113.823C361.914 113.823 363.621 112.114 363.621 110.006C363.621 107.898 361.914 106.189 359.808 106.189C357.702 106.189 355.995 107.898 355.995 110.006C355.995 112.114 357.702 113.823 359.808 113.823Z" fill="#223333"/>
<path d="M393.257 85.8555C393.76 73.4512 383.081 62.9446 369.403 62.3885C355.726 61.8323 344.23 71.4372 343.727 83.8415C343.224 96.2459 352.731 99.0642 366.408 99.6204C380.086 100.177 392.753 98.2599 393.257 85.8555Z" fill="#4CAF50"/>
<path d="M352.26 119.945C352.908 117.114 346.13 113.143 337.121 111.076C328.112 109.009 320.284 109.628 319.635 112.459C318.987 115.29 325.765 119.261 334.774 121.328C343.783 123.396 351.612 122.776 352.26 119.945Z" fill="#223333"/>
<path d="M417.961 130.883C418.61 128.052 411.832 124.081 402.823 122.013C393.814 119.946 385.985 120.566 385.337 123.397C384.689 126.228 391.466 130.199 400.475 132.266C409.484 134.333 417.313 133.714 417.961 130.883Z" fill="#223333"/>
<path d="M376.046 135.511C376.226 136.497 376.21 137.51 376 138.49C375.789 139.471 375.387 140.401 374.817 141.226C374.247 142.051 373.52 142.755 372.678 143.299C371.836 143.843 370.896 144.215 369.91 144.395C368.924 144.575 367.912 144.558 366.933 144.346C365.954 144.134 365.025 143.731 364.202 143.16C363.378 142.589 362.675 141.861 362.132 141.018C361.59 140.174 361.219 139.232 361.04 138.245L361.037 138.23C360.287 134.082 363.491 132.613 367.636 131.862C371.78 131.111 375.296 131.362 376.046 135.511Z" fill="white"/>
<path d="M253.49 236.105C256.872 227.245 257.362 219.201 254.584 218.138C251.805 217.075 246.811 223.395 243.428 232.255C240.045 241.114 239.555 249.158 242.334 250.221C245.112 251.285 250.107 244.964 253.49 236.105Z" fill="#223333"/>
<path d="M250.613 265.619C253.649 246.894 240.946 229.252 222.241 226.213C203.536 223.175 185.912 235.891 182.877 254.615C179.842 273.34 192.544 290.982 211.249 294.021C229.954 297.059 247.578 284.343 250.613 265.619Z" fill="#223333"/>
<path d="M211.533 287.073H201.11V305.768H211.533V287.073Z" fill="#223333"/>
<path d="M232.381 287.073H221.957V305.768H232.381V287.073Z" fill="#223333"/>
<path d="M209.796 309.246C214.593 309.246 218.482 307.786 218.482 305.985C218.482 304.185 214.593 302.725 209.796 302.725C204.999 302.725 201.11 304.185 201.11 305.985C201.11 307.786 204.999 309.246 209.796 309.246Z" fill="#223333"/>
<path d="M230.643 308.812C235.441 308.812 239.33 307.352 239.33 305.551C239.33 303.75 235.441 302.29 230.643 302.29C225.846 302.29 221.957 303.75 221.957 305.551C221.957 307.352 225.846 308.812 230.643 308.812Z" fill="#223333"/>
<path d="M183.462 228.175C180.692 215.754 189.548 203.204 203.243 200.143C216.938 197.082 230.286 204.669 233.056 217.089C235.827 229.51 226.75 234.091 213.055 237.152C199.36 240.213 186.233 240.595 183.462 228.175Z" fill="#4CAF50"/>
<path d="M193.6 251.539C194.874 248.849 188.968 243.373 180.407 239.308C171.847 235.244 163.873 234.13 162.599 236.82C161.324 239.511 167.231 244.986 175.791 249.051C184.352 253.115 192.325 254.229 193.6 251.539Z" fill="#223333"/>
<path d="M68.1808 329.242C87.1303 329.242 102.492 313.864 102.492 294.895C102.492 275.925 87.1303 260.548 68.1808 260.548C49.2312 260.548 33.8696 275.925 33.8696 294.895C33.8696 313.864 49.2312 329.242 68.1808 329.242Z" fill="#223333"/>
<path d="M62.969 321.851H52.5454V340.546H62.969V321.851Z" fill="#223333"/>
<path d="M83.8162 321.851H73.3926V340.546H83.8162V321.851Z" fill="#223333"/>
<path d="M61.2317 344.024C66.029 344.024 69.918 342.564 69.918 340.764C69.918 338.963 66.029 337.503 61.2317 337.503C56.4343 337.503 52.5453 338.963 52.5453 340.764C52.5453 342.564 56.4343 344.024 61.2317 344.024Z" fill="#223333"/>
<path d="M82.0789 343.59C86.8763 343.59 90.7653 342.13 90.7653 340.329C90.7653 338.528 86.8763 337.068 82.0789 337.068C77.2816 337.068 73.3926 338.528 73.3926 340.329C73.3926 342.13 77.2816 343.59 82.0789 343.59Z" fill="#223333"/>
<path d="M69.0495 297.938C75.5259 297.938 80.7761 292.683 80.7761 286.199C80.7761 279.716 75.5259 274.46 69.0495 274.46C62.573 274.46 57.3229 279.716 57.3229 286.199C57.3229 292.683 62.573 297.938 69.0495 297.938Z" fill="white"/>
<path d="M69.0495 290.112C71.2083 290.112 72.9584 288.36 72.9584 286.199C72.9584 284.038 71.2083 282.286 69.0495 282.286C66.8907 282.286 65.1406 284.038 65.1406 286.199C65.1406 288.36 66.8907 290.112 69.0495 290.112Z" fill="#223333"/>
<path d="M34.8979 262.953C32.1274 250.532 40.9835 237.982 54.6785 234.921C68.3734 231.86 81.7213 239.447 84.4918 251.867C87.2622 264.288 78.1861 268.869 64.4911 271.93C50.7961 274.991 37.6684 275.373 34.8979 262.953Z" fill="#4CAF50"/>
<path d="M93.1986 172.189C96.5814 163.329 97.0713 155.285 94.293 154.222C91.5146 153.159 86.52 159.479 83.1372 168.339C79.7545 177.199 79.2645 185.243 82.0429 186.306C84.8213 187.369 89.8159 181.048 93.1986 172.189Z" fill="#223333"/>
<path d="M90.3223 201.703C93.3577 182.978 80.6551 165.336 61.9503 162.297C43.2454 159.259 25.6215 171.975 22.5861 190.699C19.5507 209.424 32.2534 227.066 50.9582 230.105C69.663 233.143 87.2869 220.427 90.3223 201.703Z" fill="#223333"/>
<path d="M51.2424 223.157H40.8187V241.852H51.2424V223.157Z" fill="#223333"/>
<path d="M72.0896 223.157H61.666V241.852H72.0896V223.157Z" fill="#223333"/>
<path d="M49.5051 245.33C54.3024 245.33 58.1915 243.871 58.1915 242.07C58.1915 240.269 54.3024 238.809 49.5051 238.809C44.7077 238.809 40.8187 240.269 40.8187 242.07C40.8187 243.871 44.7077 245.33 49.5051 245.33Z" fill="#223333"/>
<path d="M70.3524 244.896C75.1497 244.896 79.0388 243.436 79.0388 241.635C79.0388 239.834 75.1497 238.374 70.3524 238.374C65.555 238.374 61.666 239.834 61.666 241.635C61.666 243.436 65.555 244.896 70.3524 244.896Z" fill="#223333"/>
<path d="M57.3229 199.244C63.7993 199.244 69.0495 193.989 69.0495 187.505C69.0495 181.022 63.7993 175.766 57.3229 175.766C50.8465 175.766 45.5963 181.022 45.5963 187.505C45.5963 193.989 50.8465 199.244 57.3229 199.244Z" fill="white"/>
<path d="M57.3228 191.418C59.4816 191.418 61.2317 189.667 61.2317 187.506C61.2317 185.344 59.4816 183.593 57.3228 183.593C55.164 183.593 53.4139 185.344 53.4139 187.506C53.4139 189.667 55.164 191.418 57.3228 191.418Z" fill="#223333"/>
<path d="M23.1713 164.259C20.4009 151.839 29.2569 139.288 42.9519 136.227C56.6469 133.166 69.9948 140.753 72.7652 153.173C75.5357 165.594 66.4595 170.175 52.7645 173.236C39.0696 176.297 25.9418 176.679 23.1713 164.259Z" fill="#4CAF50"/>
<path d="M33.309 187.623C34.5836 184.933 28.6771 179.457 20.1164 175.393C11.5557 171.328 3.58253 170.214 2.30791 172.904C1.03329 175.595 6.93983 181.07 15.5005 185.135C24.0613 189.199 32.0344 190.313 33.309 187.623Z" fill="#223333"/>
<path d="M39.6007 208.592C39.6007 211.954 48.2473 218.592 57.8421 218.592C67.4368 218.592 76.4328 209.128 76.4328 205.766C76.4328 202.404 67.4367 206.418 57.8421 206.418C48.2474 206.418 39.6007 205.23 39.6007 208.592Z" fill="white"/>
<path d="M90.1875 65.053C89.5539 65.0537 88.9464 65.306 88.4983 65.7545C88.0502 66.2031 87.7982 66.8112 87.7975 67.4456V166.338C87.7982 166.973 88.0502 167.581 88.4983 168.029C88.9464 168.478 89.5539 168.73 90.1875 168.731H318.836C319.47 168.73 320.077 168.478 320.526 168.029C320.974 167.581 321.226 166.973 321.226 166.338V67.4456C321.226 66.8112 320.974 66.2031 320.526 65.7545C320.077 65.306 319.47 65.0537 318.836 65.053H90.1875Z" fill="#4CAF50"/>
<path d="M151.926 140.117C164.74 140.117 175.127 129.719 175.127 116.892C175.127 104.065 164.74 93.6672 151.926 93.6672C139.113 93.6672 128.726 104.065 128.726 116.892C128.726 129.719 139.113 140.117 151.926 140.117Z" fill="white"/>
<path d="M204.289 113.802C203.577 113.814 202.898 114.105 202.399 114.613C201.9 115.121 201.62 115.805 201.62 116.517C201.62 117.23 201.9 117.914 202.399 118.422C202.898 118.93 203.577 119.221 204.289 119.233H277.54C277.897 119.239 278.251 119.175 278.583 119.044C278.914 118.913 279.217 118.718 279.473 118.47C279.729 118.222 279.934 117.926 280.076 117.598C280.218 117.271 280.294 116.919 280.3 116.562C280.306 116.205 280.241 115.851 280.11 115.519C279.979 115.187 279.784 114.884 279.536 114.628C279.288 114.372 278.992 114.167 278.665 114.025C278.338 113.883 277.986 113.807 277.63 113.802C277.6 113.801 277.57 113.801 277.54 113.802H204.289Z" fill="white"/>
<path d="M204.289 98.069C203.577 98.0807 202.898 98.3719 202.399 98.8799C201.9 99.3879 201.62 100.072 201.62 100.784C201.62 101.497 201.9 102.181 202.399 102.689C202.898 103.197 203.577 103.488 204.289 103.5H240.869C241.225 103.506 241.58 103.442 241.911 103.311C242.243 103.18 242.545 102.985 242.802 102.737C243.058 102.489 243.263 102.193 243.405 101.865C243.546 101.538 243.622 101.186 243.628 100.829C243.634 100.472 243.57 100.118 243.439 99.786C243.308 99.4541 243.113 99.1514 242.865 98.8951C242.617 98.6388 242.321 98.4339 241.993 98.2921C241.666 98.1504 241.314 98.0745 240.958 98.069C240.928 98.0685 240.899 98.0685 240.869 98.069H204.289Z" fill="white"/>
<path d="M204.289 130.284C203.577 130.296 202.898 130.587 202.399 131.095C201.9 131.603 201.62 132.287 201.62 132.999C201.62 133.712 201.9 134.396 202.399 134.904C202.898 135.412 203.577 135.703 204.289 135.715H277.54C277.897 135.721 278.251 135.657 278.583 135.526C278.914 135.395 279.217 135.2 279.473 134.952C279.729 134.704 279.934 134.408 280.076 134.08C280.218 133.753 280.294 133.401 280.3 133.044C280.306 132.687 280.241 132.333 280.11 132.001C279.979 131.669 279.784 131.366 279.536 131.11C279.288 130.854 278.992 130.649 278.665 130.507C278.338 130.365 277.986 130.29 277.63 130.284C277.6 130.283 277.57 130.283 277.54 130.284H204.289Z" fill="white"/>
<path d="M560.046 313.207C562.825 312.144 562.335 304.1 558.952 295.24C555.569 286.381 550.575 280.06 547.796 281.123C545.018 282.187 545.508 290.23 548.891 299.09C552.273 307.95 557.268 314.27 560.046 313.207Z" fill="#223333"/>
<path d="M583.961 364.184C602.666 361.145 615.369 343.503 612.333 324.778C609.298 306.054 591.674 293.338 572.969 296.376C554.264 299.415 541.562 317.057 544.597 335.782C547.632 354.506 565.256 367.222 583.961 364.184Z" fill="#223333"/>
<path d="M594.1 357.236H583.677L585.717 379.625L594.118 377.34L594.1 357.236Z" fill="#223333"/>
<path d="M571.376 357.294H560.952L562.992 379.683L571.015 377.34L571.376 357.294Z" fill="#223333"/>
<path d="M562.696 380.735C567.48 380.385 571.253 378.645 571.122 376.849C570.99 375.053 567.005 373.881 562.221 374.231C557.436 374.581 553.664 376.321 553.795 378.117C553.926 379.913 557.911 381.085 562.696 380.735Z" fill="#223333"/>
<path d="M577.596 333.323C584.073 333.323 589.323 328.068 589.323 321.584C589.323 315.101 584.073 309.845 577.596 309.845C571.12 309.845 565.87 315.101 565.87 321.584C565.87 328.068 571.12 333.323 577.596 333.323Z" fill="white"/>
<path d="M577.596 325.497C579.755 325.497 581.505 323.745 581.505 321.584C581.505 319.423 579.755 317.671 577.596 317.671C575.438 317.671 573.688 319.423 573.688 321.584C573.688 323.745 575.438 325.497 577.596 325.497Z" fill="#223333"/>
<path d="M619.053 309.571C624.682 301.941 627.306 294.323 624.913 292.554C622.521 290.785 616.018 295.535 610.389 303.165C604.759 310.794 602.136 318.413 604.528 320.182C606.921 321.951 613.424 317.2 619.053 309.571Z" fill="#223333"/>
<path d="M561.724 347.99C561.724 345.22 568.851 339.749 576.758 339.749C584.666 339.749 592.081 347.549 592.081 350.319C592.081 353.09 584.666 349.782 576.758 349.782C568.851 349.782 561.724 350.761 561.724 347.99Z" fill="white"/>
<path d="M674.678 301.896L486.863 275.832C485.399 275.627 484.076 274.849 483.184 273.669C482.292 272.488 481.904 271.002 482.105 269.536L503.219 117.072C503.423 115.606 504.201 114.281 505.38 113.388C506.559 112.495 508.044 112.107 509.508 112.308L697.323 138.372C698.788 138.577 700.111 139.355 701.003 140.536C701.895 141.716 702.283 143.202 702.082 144.669L680.968 297.133C680.763 298.598 679.986 299.923 678.807 300.816C677.628 301.709 676.143 302.097 674.678 301.896Z" fill="#E5E5E5"/>
<path d="M607.395 254.314L511.51 241.008C511.39 240.992 511.271 240.966 511.156 240.929L567.394 168.589C567.739 168.138 568.197 167.786 568.722 167.57C569.246 167.354 569.819 167.281 570.381 167.359C570.943 167.437 571.475 167.663 571.921 168.014C572.367 168.365 572.712 168.828 572.921 169.356L596.049 226.349L597.157 229.076L607.395 254.314Z" fill="white"/>
<path opacity="0.2" d="M607.394 254.313L574.657 249.771L593.964 228.633L595.354 227.111L596.049 226.349L597.157 229.077L607.394 254.313Z" fill="#223333"/>
<path d="M660.782 261.723L577.85 250.214L597.157 229.076L598.546 227.554L623.705 200.007C624.14 199.593 624.657 199.276 625.222 199.075C625.787 198.874 626.389 198.794 626.987 198.841C627.585 198.888 628.166 199.06 628.694 199.346C629.221 199.633 629.682 200.027 630.047 200.503C630.139 200.637 630.222 200.777 630.297 200.922L660.782 261.723Z" fill="white"/>
<path d="M608.561 193.147C616.481 193.147 622.901 186.72 622.901 178.792C622.901 170.863 616.481 164.436 608.561 164.436C600.641 164.436 594.22 170.863 594.22 178.792C594.22 186.72 600.641 193.147 608.561 193.147Z" fill="white"/>
<path d="M530.073 126.438L512.712 124.029L510.305 141.408L527.667 143.817L530.073 126.438Z" fill="#4CAF50"/>
<path d="M611.748 298.338C614.518 285.918 605.662 273.367 591.967 270.306C578.272 267.245 564.925 274.832 562.154 287.253C559.384 299.673 568.46 304.254 582.155 307.315C595.85 310.376 608.978 310.759 611.748 298.338Z" fill="#4CAF50"/>
<path d="M585.555 380.68C590.339 380.33 594.112 378.59 593.98 376.794C593.849 374.998 589.864 373.826 585.08 374.176C580.295 374.526 576.523 376.266 576.654 378.062C576.785 379.858 580.77 381.03 585.555 380.68Z" fill="#223333"/>
<path d="M704.944 438.322C723.616 438.322 738.753 423.196 738.753 404.536C738.753 385.876 723.616 370.749 704.944 370.749C686.272 370.749 671.135 385.876 671.135 404.536C671.135 423.196 686.272 438.322 704.944 438.322Z" fill="#223333"/>
<path d="M744.903 427.76H714.614V438.025H744.903V427.76Z" fill="#223333"/>
<path d="M745.117 438.025C746.889 438.025 748.326 434.195 748.326 429.471C748.326 424.747 746.889 420.918 745.117 420.918C743.344 420.918 741.907 424.747 741.907 429.471C741.907 434.195 743.344 438.025 745.117 438.025Z" fill="#223333"/>
<path d="M737.837 426.976H707.548V437.24H737.837V426.976Z" fill="#223333"/>
<path d="M672.148 373.115C669.418 360.897 678.145 348.552 691.639 345.541C705.134 342.529 718.286 349.993 721.016 362.211C723.746 374.428 714.803 378.934 701.308 381.946C687.814 384.957 674.878 385.333 672.148 373.115Z" fill="#4CAF50"/>
<path d="M717.938 402.612C716.17 402.648 714.435 402.127 712.979 401.125C711.522 400.122 710.418 398.687 709.821 397.024C709.788 396.926 709.775 396.823 709.782 396.72C709.789 396.617 709.816 396.517 709.862 396.425C709.908 396.332 709.972 396.25 710.05 396.182C710.127 396.115 710.218 396.063 710.315 396.03C710.413 395.997 710.516 395.984 710.619 395.991C710.722 395.998 710.822 396.025 710.915 396.071C711.007 396.117 711.089 396.181 711.157 396.259C711.225 396.336 711.277 396.426 711.31 396.524C712.498 400.06 716.568 401.91 720.38 400.645C722.273 400.029 723.845 398.691 724.755 396.921C725.145 396.159 725.379 395.327 725.445 394.473C725.51 393.62 725.405 392.761 725.136 391.949C725.103 391.851 725.09 391.748 725.097 391.645C725.104 391.542 725.131 391.442 725.177 391.35C725.223 391.258 725.287 391.175 725.364 391.108C725.442 391.04 725.532 390.988 725.63 390.955C725.728 390.923 725.831 390.909 725.934 390.916C726.037 390.923 726.137 390.951 726.229 390.997C726.322 391.042 726.404 391.106 726.472 391.184C726.54 391.261 726.591 391.352 726.624 391.449C726.96 392.458 727.092 393.523 727.012 394.582C726.932 395.642 726.642 396.675 726.159 397.622C725.062 399.764 723.163 401.386 720.874 402.135C719.927 402.45 718.936 402.611 717.938 402.612Z" fill="white"/>
<path d="M732.998 407.204C733.905 408.977 734.071 411.038 733.458 412.933C732.845 414.828 731.503 416.402 729.729 417.309C727.955 418.216 725.892 418.382 723.996 417.769C722.1 417.156 720.525 415.816 719.617 414.043L719.61 414.03C717.724 410.335 720.33 408.042 724.027 406.157C727.724 404.272 731.112 403.509 732.998 407.204Z" fill="white"/>
<path d="M697.38 449.264C700.529 448.452 700.985 439.668 698.398 429.644C695.811 419.62 691.161 412.152 688.012 412.964C684.863 413.775 684.408 422.559 686.995 432.583C689.581 442.607 694.231 450.075 697.38 449.264Z" fill="#223333"/>
<path d="M754.15 364.259H741.287C741.164 364.259 741.045 364.222 740.943 364.153C740.842 364.083 740.765 363.985 740.721 363.871C740.677 363.757 740.668 363.632 740.696 363.513C740.725 363.393 740.789 363.286 740.879 363.203L752.576 352.617H741.769C741.608 352.617 741.454 352.553 741.34 352.439C741.226 352.325 741.163 352.171 741.163 352.011C741.163 351.85 741.226 351.696 741.34 351.582C741.454 351.468 741.608 351.404 741.769 351.404H754.15C754.272 351.404 754.392 351.441 754.493 351.511C754.594 351.58 754.672 351.678 754.716 351.792C754.76 351.907 754.768 352.032 754.74 352.151C754.712 352.27 754.648 352.378 754.557 352.46L742.86 363.047H754.15C754.311 363.047 754.465 363.11 754.579 363.224C754.693 363.338 754.756 363.492 754.756 363.653C754.756 363.814 754.693 363.968 754.579 364.081C754.465 364.195 754.311 364.259 754.15 364.259Z" fill="#4CAF50"/>
<path d="M770.528 345.466H757.665C757.543 345.466 757.423 345.429 757.322 345.36C757.221 345.291 757.143 345.192 757.099 345.078C757.055 344.964 757.047 344.839 757.075 344.72C757.103 344.601 757.167 344.493 757.258 344.411L768.955 333.824H758.148C757.987 333.824 757.832 333.76 757.719 333.646C757.605 333.533 757.541 333.379 757.541 333.218C757.541 333.057 757.605 332.903 757.719 332.789C757.832 332.675 757.987 332.612 758.148 332.612H770.528C770.651 332.612 770.771 332.649 770.872 332.718C770.973 332.787 771.05 332.885 771.094 333C771.139 333.114 771.147 333.239 771.119 333.358C771.09 333.477 771.026 333.585 770.936 333.667L759.239 344.254H770.528C770.689 344.254 770.844 344.318 770.957 344.431C771.071 344.545 771.135 344.699 771.135 344.86C771.135 345.021 771.071 345.175 770.957 345.289C770.844 345.402 770.689 345.466 770.528 345.466Z" fill="#4CAF50"/>
<path d="M763.249 324.855H750.386C750.263 324.855 750.144 324.818 750.043 324.748C749.942 324.679 749.864 324.581 749.82 324.467C749.776 324.352 749.767 324.227 749.796 324.108C749.824 323.989 749.888 323.881 749.979 323.799L761.676 313.212H750.868C750.707 313.212 750.553 313.149 750.439 313.035C750.326 312.921 750.262 312.767 750.262 312.606C750.262 312.445 750.326 312.291 750.439 312.178C750.553 312.064 750.707 312 750.868 312H763.249C763.372 312 763.491 312.037 763.592 312.106C763.693 312.176 763.771 312.274 763.815 312.388C763.859 312.502 763.868 312.627 763.839 312.746C763.811 312.866 763.747 312.973 763.656 313.056L751.959 323.642H763.249C763.41 323.642 763.564 323.706 763.678 323.82C763.792 323.933 763.856 324.088 763.856 324.248C763.856 324.409 763.792 324.563 763.678 324.677C763.564 324.791 763.41 324.855 763.249 324.855Z" fill="#4CAF50"/>
</g>
<defs>
<clipPath id="clip0">
<rect width="771.135" height="450.733" fill="white"/>
</clipPath>
</defs>
</svg>
