<svg width="582" height="404" viewBox="0 0 582 404" fill="none" xmlns="http://www.w3.org/2000/svg">
<g clip-path="url(#clip0)">
<path d="M272.137 178.196C272.137 256.621 225.511 284.005 167.995 284.005C110.48 284.005 63.8539 256.621 63.8539 178.196C63.8539 99.7699 167.995 0 167.995 0C167.995 0 272.137 99.7699 272.137 178.196Z" fill="#4CAF50" fill-opacity="0.3"/>
<path d="M164.201 272.008L165.268 206.373L209.655 125.173L165.435 196.076L165.915 166.564L196.507 107.817L166.042 158.754L166.904 105.675L199.662 58.9047L167.04 97.3283L167.578 0L164.192 128.845L164.47 123.53L131.165 72.5534L163.937 133.733L160.833 193.013L160.741 191.44L122.345 137.795L160.624 196.999L160.237 204.412L160.167 204.524L160.199 205.133L152.326 355.532H162.845L164.107 277.848L202.292 218.789L164.201 272.008Z" fill="#223333"/>
<path d="M582 210.316C582 274.512 543.835 296.926 496.755 296.926C449.676 296.926 411.511 274.512 411.511 210.316C411.511 146.121 496.755 64.4549 496.755 64.4549C496.755 64.4549 582 146.121 582 210.316Z" fill="#4CAF50" fill-opacity="0.3"/>
<path d="M493.65 287.106L494.523 233.381L530.856 166.915L494.66 224.953L495.052 200.796L520.093 152.708L495.156 194.403L495.862 150.955L522.676 112.671L495.973 144.123L496.414 64.4548L493.642 169.921L493.87 165.57L466.608 123.843L493.433 173.922L490.893 222.446L490.817 221.158L459.388 177.246L490.722 225.708L490.404 231.776L490.347 231.868L490.373 232.366L483.929 355.474H492.539L493.572 291.886L524.829 243.544L493.65 287.106Z" fill="#223333"/>
<path d="M288.038 367.957C447.116 367.957 576.075 361.438 576.075 353.397C576.075 345.357 447.116 338.838 288.038 338.838C128.959 338.838 0 345.357 0 353.397C0 361.438 128.959 367.957 288.038 367.957Z" fill="#223333"/>
<path d="M463.507 379.946C490.754 379.946 512.842 378.829 512.842 377.452C512.842 376.075 490.754 374.958 463.507 374.958C436.261 374.958 414.173 376.075 414.173 377.452C414.173 378.829 436.261 379.946 463.507 379.946Z" fill="#223333"/>
<path d="M284.988 404C312.234 404 334.322 402.884 334.322 401.506C334.322 400.129 312.234 399.013 284.988 399.013C257.741 399.013 235.654 400.129 235.654 401.506C235.654 402.884 257.741 404 284.988 404Z" fill="#223333"/>
<path d="M149.549 387.035C211.797 387.035 262.259 384.484 262.259 381.338C262.259 378.191 211.797 375.641 149.549 375.641C87.3009 375.641 36.8387 378.191 36.8387 381.338C36.8387 384.484 87.3009 387.035 149.549 387.035Z" fill="#223333"/>
<path d="M50.4222 335.112C73.0825 335.112 91.4523 316.743 91.4523 294.085C91.4523 271.426 73.0825 253.057 50.4222 253.057C27.7619 253.057 9.39209 271.426 9.39209 294.085C9.39209 316.743 27.7619 335.112 50.4222 335.112Z" fill="#223333"/>
<path d="M43.8109 326.208L31.3469 326.061L31.0838 348.391L43.5478 348.538L43.8109 326.208Z" fill="#223333"/>
<path d="M68.7387 326.501L56.2748 326.355L56.0116 348.684L68.4756 348.831L68.7387 326.501Z" fill="#223333"/>
<path d="M51.854 348.895C51.8793 346.744 47.2496 344.946 41.5132 344.878C35.7768 344.81 31.106 346.499 31.0807 348.65C31.0553 350.801 35.685 352.6 41.4214 352.668C47.1578 352.735 51.8286 351.046 51.854 348.895Z" fill="#223333"/>
<path d="M76.7879 348.67C76.8133 346.519 72.1836 344.72 66.4472 344.652C60.7108 344.585 56.04 346.274 56.0146 348.425C55.9893 350.576 60.619 352.374 66.3554 352.442C72.0918 352.51 76.7626 350.821 76.7879 348.67Z" fill="#223333"/>
<path d="M51.5832 297.733C59.3279 297.733 65.6062 291.455 65.6062 283.711C65.6062 275.967 59.3279 269.689 51.5832 269.689C43.8386 269.689 37.5603 275.967 37.5603 283.711C37.5603 291.455 43.8386 297.733 51.5832 297.733Z" fill="white"/>
<path d="M51.5832 288.385C54.1648 288.385 56.2576 286.292 56.2576 283.711C56.2576 281.129 54.1648 279.037 51.5832 279.037C49.0017 279.037 46.9089 281.129 46.9089 283.711C46.9089 286.292 49.0017 288.385 51.5832 288.385Z" fill="#223333"/>
<path d="M11.0739 255.464C7.93596 240.59 18.7022 225.724 35.1209 222.261C51.5396 218.797 67.3935 228.048 70.5314 242.922C73.6694 257.796 62.7522 263.14 46.3334 266.603C29.9147 270.066 14.2119 270.338 11.0739 255.464Z" fill="#4CAF50"/>
<path d="M113.011 316.973C113.011 345.576 96.0065 355.563 75.0291 355.563C74.5432 355.563 74.058 355.557 73.5736 355.547C72.6016 355.526 71.639 355.479 70.6879 355.415C51.7562 354.075 37.0477 343.574 37.0477 316.973C37.0477 289.444 72.2291 254.706 74.8718 252.136L74.8764 252.131C74.9782 252.031 75.0291 251.983 75.0291 251.983C75.0291 251.983 113.011 288.37 113.011 316.973Z" fill="#4CAF50"/>
<path d="M73.6453 351.187L87.5369 331.778L73.6106 353.318L73.5736 355.547C72.6017 355.526 71.639 355.479 70.6879 355.415L72.1851 326.798L72.1736 326.576L72.199 326.534L72.3402 323.831L58.3792 302.237L72.3841 321.804L72.4165 322.378L73.5481 300.757L61.5958 278.443L73.6939 296.962L74.8718 252.136L74.8764 251.983V252.131L74.6797 287.479L86.5789 273.466L74.6311 290.524L74.3164 309.883L85.4264 291.304L74.2702 312.731L74.0943 323.494L90.2236 297.635L74.0341 327.249L73.6453 351.187Z" fill="#223333"/>
<path d="M370.042 334.668C392.702 334.668 411.072 316.3 411.072 293.641C411.072 270.982 392.702 252.613 370.042 252.613C347.382 252.613 329.012 270.982 329.012 293.641C329.012 316.3 347.382 334.668 370.042 334.668Z" fill="#223333"/>
<path d="M373.544 326.25L361.629 329.911L368.19 351.257L380.105 347.596L373.544 326.25Z" fill="#223333"/>
<path d="M397.373 318.929L385.458 322.591L392.019 343.937L403.934 340.275L397.373 318.929Z" fill="#223333"/>
<path d="M379.339 352.177C384.823 350.492 388.756 347.459 388.124 345.403C387.492 343.347 382.535 343.046 377.051 344.731C371.567 346.416 367.634 349.449 368.266 351.505C368.898 353.562 373.856 353.863 379.339 352.177Z" fill="#223333"/>
<path d="M403.017 344.358C408.5 342.673 412.433 339.64 411.801 337.584C411.169 335.527 406.212 335.227 400.728 336.912C395.244 338.597 391.311 341.63 391.943 343.686C392.575 345.742 397.533 346.043 403.017 344.358Z" fill="#223333"/>
<path d="M367.984 297.429C375.728 297.429 382.007 291.151 382.007 283.407C382.007 275.663 375.728 269.385 367.984 269.385C360.239 269.385 353.961 275.663 353.961 283.407C353.961 291.151 360.239 297.429 367.984 297.429Z" fill="white"/>
<path d="M367.984 288.081C370.565 288.081 372.658 285.989 372.658 283.407C372.658 280.826 370.565 278.733 367.984 278.733C365.402 278.733 363.309 280.826 363.309 283.407C363.309 285.989 365.402 288.081 367.984 288.081Z" fill="#223333"/>
<path d="M320.788 268.861C313.263 255.653 318.982 238.212 333.562 229.906C348.142 221.6 366.062 225.574 373.587 238.783C381.113 251.991 372.346 260.41 357.766 268.716C343.186 277.022 328.314 282.069 320.788 268.861Z" fill="#4CAF50"/>
<path d="M296.867 311.735C296.867 337.991 281.258 347.159 262.002 347.159C261.556 347.159 261.11 347.154 260.666 347.144C259.773 347.125 258.89 347.082 258.017 347.023C240.638 345.793 227.136 336.154 227.136 311.735C227.136 286.465 259.431 254.577 261.857 252.218L261.861 252.213C261.955 252.122 262.002 252.077 262.002 252.077C262.002 252.077 296.867 285.479 296.867 311.735Z" fill="#4CAF50"/>
<path d="M260.731 343.142L273.483 325.325L260.7 345.099L260.666 347.144C259.773 347.125 258.89 347.082 258.017 347.023L259.391 320.754L259.38 320.55L259.404 320.512L259.533 318.031L246.718 298.209L259.574 316.17L259.603 316.697L260.642 296.849L249.671 276.367L260.776 293.366L261.857 252.218L261.861 252.077V252.213L261.681 284.661L272.604 271.798L261.636 287.457L261.347 305.227L271.546 288.172L261.305 307.842L261.143 317.721L275.949 293.984L261.088 321.168L260.731 343.142Z" fill="#223333"/>
<path d="M433.98 322.686C433.98 351.288 416.976 361.276 395.999 361.276C395.513 361.276 395.027 361.27 394.543 361.259C393.571 361.238 392.608 361.192 391.657 361.127C372.726 359.788 358.017 349.287 358.017 322.686C358.017 295.156 393.199 260.419 395.841 257.848L395.846 257.844C395.948 257.744 395.999 257.696 395.999 257.696C395.999 257.696 433.98 294.083 433.98 322.686Z" fill="#4CAF50"/>
<path d="M394.615 356.9L408.506 337.49L394.58 359.031L394.543 361.259C393.571 361.238 392.608 361.192 391.657 361.127L393.155 332.511L393.143 332.288L393.168 332.247L393.31 329.544L379.349 307.95L393.354 327.517L393.386 328.091L394.518 306.469L382.565 284.156L394.663 302.674L395.841 257.848L395.846 257.696V257.844L395.649 293.192L407.548 279.178L395.601 296.237L395.286 315.596L406.396 297.017L395.24 318.444L395.064 329.206L411.193 303.348L395.004 332.962L394.615 356.9Z" fill="#223333"/>
<path d="M372.648 318.201C374.172 314.987 367.109 308.447 356.872 303.592C346.635 298.737 337.1 297.406 335.576 300.619C334.052 303.833 341.115 310.374 351.352 315.229C361.589 320.084 371.124 321.415 372.648 318.201Z" fill="#223333"/>
<path d="M56.8591 314.446C58.1824 311.144 50.7296 305.051 40.2128 300.836C29.696 296.621 20.0977 295.88 18.7744 299.182C17.4511 302.483 24.9039 308.576 35.4207 312.791C45.9375 317.006 55.5358 317.747 56.8591 314.446Z" fill="#223333"/>
</g>
<defs>
<clipPath id="clip0">
<rect width="582" height="404" fill="white"/>
</clipPath>
</defs>
</svg>
