<svg width="524" height="638" viewBox="0 0 524 638" fill="none" xmlns="http://www.w3.org/2000/svg">
<path d="M461.025 452.37L7.15127 387.878C5.25549 387.607 3.52982 386.701 2.35288 385.358C1.17594 384.015 0.643848 382.345 0.873355 380.715L54.096 6.14717C54.3297 4.51768 55.3058 3.06231 56.8102 2.10038C58.3147 1.13844 60.2246 0.748516 62.1209 1.01614L515.995 65.5075C517.89 65.7787 519.616 66.6852 520.793 68.0281C521.97 69.371 522.502 71.0407 522.272 72.6708L469.05 447.239C468.816 448.868 467.84 450.323 466.336 451.285C464.831 452.247 462.921 452.637 461.025 452.37ZM61.7715 3.47501C60.6337 3.31444 59.4878 3.54839 58.5851 4.12555C57.6824 4.70271 57.0968 5.57594 56.9566 6.55363L3.7339 381.121C3.5962 382.099 3.91545 383.101 4.62162 383.907C5.32778 384.713 6.36319 385.257 7.50065 385.419L461.374 449.911C462.512 450.071 463.658 449.837 464.561 449.26C465.463 448.683 466.049 447.81 466.189 446.832L519.412 72.2643C519.55 71.2863 519.23 70.2845 518.524 69.4787C517.818 68.673 516.783 68.129 515.645 67.9663L61.7715 3.47501Z" fill="#4CAF50" fill-opacity="0.3"/>
<path d="M184.958 476.179C191.538 473.665 190.377 454.635 182.366 433.676C174.355 412.717 162.527 397.765 155.948 400.28C149.368 402.794 150.528 421.824 158.539 442.783C166.55 463.742 178.378 478.694 184.958 476.179Z" fill="#223333"/>
<path d="M241.592 596.775C285.888 589.586 315.971 547.85 308.782 503.553C301.594 459.257 259.857 429.175 215.561 436.363C171.264 443.551 141.182 485.288 148.371 529.584C155.559 573.881 197.296 603.963 241.592 596.775Z" fill="#223333"/>
<path d="M265.956 580.419H241L245.883 633.419L266 628.01L265.956 580.419Z" fill="#223333"/>
<path d="M212 580.419H187L191.891 633.419L211.132 627.873L212 580.419Z" fill="#223333"/>
<path d="M191.232 635.93C202.562 635.102 211.496 630.986 211.185 626.737C210.875 622.488 201.437 619.715 190.106 620.543C178.776 621.372 169.842 625.488 170.153 629.737C170.463 633.986 179.901 636.759 191.232 635.93Z" fill="#223333"/>
<path d="M226.5 523.419C241.688 523.419 254 511.107 254 495.919C254 480.732 241.688 468.419 226.5 468.419C211.312 468.419 199 480.732 199 495.919C199 511.107 211.312 523.419 226.5 523.419Z" fill="white"/>
<path d="M226.5 505.419C231.747 505.419 236 501.166 236 495.919C236 490.673 231.747 486.419 226.5 486.419C221.253 486.419 217 490.673 217 495.919C217 501.166 221.253 505.419 226.5 505.419Z" fill="#223333"/>
<path d="M324.696 467.577C338.027 449.528 344.24 431.505 338.574 427.32C332.908 423.135 317.508 434.373 304.177 452.422C290.846 470.47 284.633 488.494 290.299 492.679C295.965 496.864 311.365 485.625 324.696 467.577Z" fill="#223333"/>
<path d="M189 558.476C189 552.07 205.903 539.419 224.659 539.419C243.414 539.419 261 557.456 261 563.862C261 570.268 243.414 562.619 224.659 562.619C205.903 562.619 189 564.883 189 558.476Z" fill="white"/>
<path d="M113.976 34.3404L72.8618 28.6406L67.162 69.7549L108.276 75.4547L113.976 34.3404Z" fill="#4CAF50"/>
<path d="M307.797 441.044C314.367 411.789 293.365 382.228 260.886 375.017C228.407 367.807 196.752 385.678 190.181 414.933C183.611 444.189 205.136 454.979 237.614 462.189C270.093 469.399 301.227 470.3 307.797 441.044Z" fill="#4CAF50"/>
<path d="M245.366 635.8C256.697 634.972 265.63 630.856 265.32 626.607C265.009 622.357 255.572 619.585 244.241 620.413C232.91 621.241 223.977 625.357 224.287 629.607C224.598 633.856 234.035 636.628 245.366 635.8Z" fill="#223333"/>
<path d="M254.284 257.83L249.305 257.025C244.845 256.299 240.855 253.834 238.211 250.17C235.566 246.507 234.483 241.944 235.199 237.482L235.874 233.302C237.547 222.948 240.91 214.595 245.869 208.476C251.826 201.389 258.484 194.922 265.742 189.175C270.503 185.718 274.942 181.84 279.007 177.587C281.969 174.251 283.887 170.119 284.525 165.704C286.203 155.317 280.252 149.174 266.331 146.925C258.594 145.765 250.735 145.677 242.974 146.663C239.986 147.017 236.956 146.673 234.123 145.657C231.291 144.641 228.732 142.982 226.65 140.809C224.567 138.637 223.017 136.01 222.122 133.137C221.227 130.264 221.011 127.222 221.491 124.252L222.858 115.789C223.43 112.144 225.048 108.742 227.514 105.997C229.981 103.253 233.191 101.282 236.755 100.325C250.739 96.856 265.296 96.36 279.485 98.8695C294.384 101.277 307.43 105.953 318.261 112.766C329.111 119.595 337.188 128.057 342.266 137.918C347.335 147.713 349.063 158.896 347.188 169.765C345.299 181.456 340.462 191.123 332.811 198.497C325.243 205.797 314.849 213.448 301.917 221.239C295.117 225.255 288.573 229.688 282.321 234.513C278.276 237.667 275.109 241.806 273.123 246.535C271.827 250.342 269.222 253.566 265.773 255.634C262.324 257.702 258.253 258.48 254.284 257.83Z" fill="#4CAF50"/>
<path d="M234.707 335.167L234.074 334.961C226.115 332.357 219.516 326.7 215.727 319.232C211.939 311.765 211.27 303.098 213.868 295.138C216.467 287.177 222.12 280.575 229.585 276.781C237.05 272.987 245.716 272.313 253.679 274.906L254.311 275.113C258.257 276.398 261.91 278.448 265.063 281.146C268.217 283.844 270.807 287.137 272.687 290.836C274.567 294.536 275.7 298.569 276.02 302.706C276.341 306.844 275.843 311.004 274.555 314.949C273.268 318.894 271.215 322.546 268.515 325.697C265.815 328.849 262.521 331.437 258.82 333.315C255.12 335.192 251.085 336.322 246.948 336.64C242.81 336.958 238.651 336.458 234.707 335.167Z" fill="#4CAF50"/>
</svg>
